<svg version="1.1" preserveAspectRatio="none" xmlns="http://www.w3.org/2000/svg" width="500" height="500" viewBox="0 0 500 500"><rect width="100%" height="100%" fill="#C0BAA7" fill-opacity="1"/><svg viewBox="105.6935 226.1376 379.9769 100" width="333" height="87.63690634878067" x="83.5px" y="206.1815px" xmlns="http://www.w3.org/2000/svg" xmlns:xlink="http://www.w3.org/1999/xlink" preserveAspectRatio="none"><defs></defs><style>.companyName {fill:#491503;fill-opacity:1;}.icon3-str {stroke:#EDEADC;stroke-opacity:1;}</style><g opacity="1" transform="rotate(0 105.6935 226.1376)">
<svg width="379.9769" height="100" x="105.6935" y="226.1376" version="1.1" preserveAspectRatio="none" viewBox="0 -29.72 121.44 31.959999999999997">
  <g transform="matrix(1 0 0 1 0 0)" class="companyName"><path id="id-D6z1nYkh9" d="M2.76-14.56L2.76-14.56Q4.88-14.56 7.40-15.24L7.40-15.24Q12.12-20.64 17.46-24.38Q22.80-28.12 26.48-28.12L26.48-28.12Q28.32-28.12 28.32-27.20L28.32-27.20Q28.32-25.96 25.52-23.64Q22.72-21.32 18.24-18.88Q13.76-16.44 9.44-15L9.44-15Q6.20-11.24 4.20-7.72Q2.20-4.20 2.20-1.92L2.20-1.92Q2.20 1.28 6.28 1.28L6.28 1.28Q8.56 1.28 11.32-0.16Q14.08-1.60 15.88-3L15.88-3Q16.28-3.28 16.58-3.28Q16.88-3.28 16.88-2.96L16.88-2.96Q16.88-2.76 16.72-2.60L16.72-2.60Q14.84-1.24 13.38-0.36Q11.92 0.52 9.56 1.38Q7.20 2.24 5.04 2.24L5.04 2.24Q0 2.24 0-1.64L0-1.64Q0-6.32 6.48-14.16L6.48-14.16Q4.56-13.68 2.80-13.56L2.80-13.56Q2.32-13.64 2.32-14.08Q2.32-14.52 2.76-14.56ZM25.24-27L25.24-27Q22.88-27 18.70-23.86Q14.52-20.72 10.44-16.16L10.44-16.16Q14.16-17.48 17.94-19.62Q21.72-21.76 24-23.66Q26.28-25.56 26.28-26.44L26.28-26.44Q26.28-27 25.24-27Z M28.96-5.80L29.96-6.64Q30.24-6.84 30.48-6.84Q30.72-6.84 30.72-6.56L30.72-6.56L30.72-6.48Q26.56-3.04 24.40-1.68L24.40-1.68Q21.60 0.44 19.68 0.44L19.68 0.44Q18 0.44 18-1.56L18-1.56Q18-4.24 21.46-9.50Q24.92-14.76 29.24-18.96Q33.56-23.16 35.76-23.16L35.76-23.16Q36.76-23.16 36.76-22.28L36.76-22.28Q36.76-20.08 31.50-15.02Q26.24-9.96 21.16-6.40L21.16-6.40Q19.68-3.56 19.68-2.08Q19.68-0.60 20.72-0.60Q21.76-0.60 23.44-1.80L23.44-1.80Q26.28-3.48 28.96-5.80L28.96-5.80ZM34.76-21.88L34.76-21.88Q33.08-21.88 28.80-17.04Q24.52-12.20 21.72-7.36L21.72-7.36Q26.32-10.64 30.72-15.38Q35.12-20.12 35.12-21.52L35.12-21.52Q35.12-21.88 34.76-21.88Z M34.12-4.80L34.12-4.80Q33.88-4.80 33.88-4.98Q33.88-5.16 34.16-5.40L34.16-5.40Q35.48-6.48 35.48-7.36L35.48-7.36Q35.48-7.92 34.48-8L34.48-8Q32.68-7.96 30.18-5.40Q27.68-2.84 27.68-1.56L27.68-1.56Q27.68-1.12 28.18-1.12Q28.68-1.12 29.52-1.80L29.52-1.80Q30.28-2.28 32.36-4.20L32.36-4.20Q32.84-4.68 33.28-4.68L33.28-4.68Q33.84-4.68 33.84-4.16L33.84-4.16Q33.84-3.96 33.72-3.84Q33.60-3.72 33.28-3.34Q32.96-2.96 32.72-2.64L32.72-2.64Q32-1.60 32-1.28L32-1.28Q32-0.48 32.64-0.48L32.64-0.48Q33.48-0.48 35.80-2.02Q38.12-3.56 40.04-5.12L40.04-5.12L41.96-6.64Q42.24-6.84 42.48-6.84Q42.72-6.84 42.72-6.56L42.72-6.56L42.72-6.48Q39.64-3.88 36.22-1.60Q32.80 0.68 31.72 0.68L31.72 0.68Q30.44 0.68 30.44-0.68L30.44-0.68Q30.44-1 30.56-1.28Q30.68-1.56 30.68-1.68Q30.68-1.80 30.60-1.84L30.60-1.84Q30.48-1.84 29.06-0.76Q27.64 0.32 26.58 0.32Q25.52 0.32 25.52-0.80Q25.52-1.92 27.02-3.82Q28.52-5.72 31.04-7.28Q33.56-8.84 35.96-8.84L35.96-8.84Q36.52-8.84 36.90-8.56Q37.28-8.28 37.28-7.70Q37.28-7.12 36.12-5.96Q34.96-4.80 34.12-4.80Z M48.80-5.76L49.92-6.64Q50.24-6.84 50.46-6.84Q50.68-6.84 50.68-6.56L50.68-6.56L50.68-6.48Q47.60-3.88 44.18-1.60Q40.76 0.68 39.84 0.68Q38.92 0.68 38.30 0.34Q37.68 0 37.68-0.44Q37.68-0.88 37.92-1.18Q38.16-1.48 38.36-1.48Q38.56-1.48 39.02-0.86Q39.48-0.24 39.92-0.24L39.92-0.24Q40.84-0.24 41.36-2.20Q41.88-4.16 41.88-4.90Q41.88-5.64 41.78-5.64Q41.68-5.64 41.60-5.56L41.60-5.56L40.44-4.64L40.28-5.24Q42.80-7.24 43.20-7.92L43.20-7.92Q43.44-8.56 43.88-8.56L43.88-8.56Q44.16-8.56 44.16-8.36Q44.16-8.16 43.88-7.50Q43.60-6.84 43.14-4.52Q42.68-2.20 42.68-1.84Q42.68-1.48 42.88-1.48L42.88-1.48Q45.68-3.20 48.80-5.76L48.80-5.76Z M56.76-5.76L57.88-6.64Q58.20-6.84 58.42-6.84Q58.64-6.84 58.64-6.56L58.64-6.56L58.64-6.48Q55.56-3.88 52.14-1.60Q48.72 0.68 47.80 0.68Q46.88 0.68 46.26 0.34Q45.64 0 45.64-0.44Q45.64-0.88 45.88-1.18Q46.12-1.48 46.32-1.48Q46.52-1.48 46.98-0.86Q47.44-0.24 47.88-0.24L47.88-0.24Q48.80-0.24 49.32-2.20Q49.84-4.16 49.84-4.90Q49.84-5.64 49.74-5.64Q49.64-5.64 49.56-5.56L49.56-5.56L48.40-4.64L48.24-5.24Q50.76-7.24 51.16-7.92L51.16-7.92Q51.40-8.56 51.84-8.56L51.84-8.56Q52.12-8.56 52.12-8.36Q52.12-8.16 51.84-7.50Q51.56-6.84 51.10-4.52Q50.64-2.20 50.64-1.84Q50.64-1.48 50.84-1.48L50.84-1.48Q53.64-3.20 56.76-5.76L56.76-5.76Z M62.22-12.08Q62.60-12.08 62.82-11.84Q63.04-11.60 63.04-11.16Q63.04-10.72 62.44-10.04Q61.84-9.36 61.40-9.36Q60.96-9.36 60.76-9.62Q60.56-9.88 60.56-10.22Q60.56-10.56 61.20-11.32Q61.84-12.08 62.22-12.08ZM64.64-5.96L65.52-6.68Q65.84-6.88 66.02-6.88Q66.20-6.88 66.20-6.64L66.20-6.64L66.20-6.52Q66.36-6.52 64.06-4.76Q61.76-3 59.14-1.24Q56.52 0.52 55.84 0.52L55.84 0.52Q54.68 0.52 54.68-0.44L54.68-0.44Q54.68-1.60 56.68-4.82Q58.68-8.04 59.60-8.04L59.60-8.04Q60.28-8.04 60.28-7.52Q60.28-7 58.44-4.68Q56.60-2.36 56.60-1.36L56.60-1.36Q56.60-0.80 57.02-0.80Q57.44-0.80 59.12-1.92L59.12-1.92Q62.12-3.92 64.64-5.96L64.64-5.96Z M74.12-5.84L75.12-6.64Q75.44-6.84 75.66-6.84Q75.88-6.84 75.88-6.56L75.88-6.56L75.88-6.48Q72.72-3.68 69.36-1.56Q66.00 0.56 63.76 0.56L63.76 0.56Q62.00 0.56 62.00-1.54Q62.00-3.64 64.54-6.12Q67.08-8.60 70.04-8.60L70.04-8.60Q70.92-8.52 71.14-8.32Q71.36-8.12 71.36-7.76Q71.36-7.40 70.62-6.46Q69.88-5.52 69.28-5.52L69.28-5.52Q68.60-5.64 68.60-6L68.60-6Q68.60-6.16 68.96-6.52L68.96-6.52Q69.64-7.12 69.64-7.40Q69.64-7.68 69.20-7.68L69.20-7.68Q67.80-7.64 65.68-5.38Q63.56-3.12 63.56-1.64L63.56-1.64Q63.56-0.52 65.02-0.52Q66.48-0.52 68.16-1.56L68.16-1.56Q71.12-3.36 74.12-5.84L74.12-5.84Z M91.36-29.44L91.36-29.44Q96.36-29.44 96.36-25.48L96.36-25.48Q96.36-21.92 92.60-16.18Q88.84-10.44 83.80-5.40L83.80-5.40Q84.64-4.88 86.26-3.56Q87.88-2.24 89.22-1.54Q90.56-0.84 92.08-0.84Q93.60-0.84 95.96-2.32L95.96-2.32Q96.20-2.52 96.42-2.52Q96.64-2.52 96.64-2.36L96.64-2.36Q96.64-1.68 94.42-0.70Q92.20 0.28 90.94 0.28Q89.68 0.28 88.42-0.22Q87.16-0.72 86.38-1.26Q85.60-1.80 84.34-2.82Q83.08-3.84 82.56-4.20L82.56-4.20Q76.88 1.20 74.20 1.20L74.20 1.20Q72.40 1.20 72.40-0.44L72.40-0.44Q72.40-2.40 74.68-4.46Q76.96-6.52 80.16-6.52L80.16-6.52Q81.36-6.52 82.60-6L82.60-6Q87.12-10.92 90.54-16.36Q93.96-21.80 93.96-25.08Q93.96-28.36 89.84-28.36Q85.72-28.36 82.38-25.42Q79.04-22.48 79.04-19.84L79.04-19.84Q79.04-17.60 81.84-17.60L81.84-17.60Q85.40-17.60 87.52-21.60L87.52-21.60Q87.76-22.04 88.02-22.60Q88.28-23.16 88.46-23.52Q88.64-23.88 88.80-24.24L88.80-24.24Q89.16-24.92 89.44-24.92L89.44-24.92Q89.80-24.92 89.80-24.32L89.80-24.32Q89.80-22.16 87.34-19.48Q84.88-16.80 81.24-16.80L81.24-16.80Q79.44-16.80 78.56-17.56Q77.68-18.32 77.68-19.66Q77.68-21 78.72-22.70Q79.76-24.40 81.50-25.90Q83.24-27.40 85.88-28.42Q88.52-29.44 91.36-29.44ZM73.64-1.24L73.64-1.24Q73.64-0.08 75.26-0.08Q76.88-0.08 81.48-4.88L81.48-4.88Q80.32-5.52 79.24-5.52L79.24-5.52Q77.04-5.52 75.34-4.06Q73.64-2.60 73.64-1.24Z M116.92-29.72Q118.40-29.72 119.10-29.08Q119.80-28.44 119.80-27.50Q119.80-26.56 119.32-25.60L119.32-25.60Q121.44-24.48 121.44-21.08L121.44-21.08Q121.44-18.76 120.44-15.82Q119.44-12.88 117.58-9.98Q115.72-7.08 113.34-4.62Q110.96-2.16 107.94-0.64Q104.92 0.88 102.04 0.88Q99.16 0.88 97.82-0.70Q96.48-2.28 96.48-4.96Q96.48-7.64 97.62-10.98Q98.76-14.32 100.82-17.56Q102.88-20.80 105.40-23.56Q107.92-26.32 110.98-28.02Q114.04-29.72 116.92-29.72L116.92-29.72ZM113.32-19.64L113.32-19.64L113.36-19.36Q113.36-18.88 113.08-18.88L113.08-18.88Q112.56-18.88 112.56-20Q112.56-21.12 113.38-22.06Q114.20-23 115.66-23.92Q117.12-24.84 117.64-25.32L117.64-25.32Q117.00-25.48 116.56-25.48L116.56-25.48Q113.60-25.48 111.88-24.28L111.88-24.28Q111.48-23.96 110.82-23.96Q110.16-23.96 110.16-24.18Q110.16-24.40 110.64-24.68L110.64-24.68Q113.12-26.12 117.04-26.12L117.04-26.12Q117.68-26.12 118.20-26L118.20-26Q118.72-26.72 118.72-27.52Q118.72-28.32 118.08-28.68Q117.44-29.04 116.60-29.04L116.60-29.04Q112.36-29.04 108.04-24.92Q103.72-20.80 101.12-15.34Q98.52-9.88 98.52-5.64L98.52-5.64Q98.52-3.08 99.66-1.60Q100.80-0.12 103.44-0.12Q106.08-0.12 109.20-2.44Q112.32-4.76 114.62-8.08Q116.92-11.40 118.40-15.06Q119.88-18.72 119.88-21.26Q119.88-23.80 118.68-24.76L118.68-24.76Q117.96-23.96 116.54-22.96Q115.12-21.96 114.22-21.16Q113.32-20.36 113.32-19.64Z"/></g>
</svg>
</g></svg></svg>