<svg version="1.1" preserveAspectRatio="none" xmlns="http://www.w3.org/2000/svg" width="500" height="500" viewBox="0 0 500 500"><rect width="100%" height="100%" fill="#491503" fill-opacity="1"/><svg viewBox="64.6143 149.8945 364.9104 272.9081" width="333" height="249.04304536127225" x="83.5px" y="125.4785px" xmlns="http://www.w3.org/2000/svg" xmlns:xlink="http://www.w3.org/1999/xlink" preserveAspectRatio="none"><defs></defs><style>.aLgOaV3zRcolors-3 {fill:#EDEADC;fill-opacity:1;}.aLgOaV3zRcolors-4 {fill:#AE360E;fill-opacity:1;}.aLgOaV3zRcolors-5 {fill:#772306;fill-opacity:1;}.aLgOaV3zRcolors-6 {fill:#DD5419;fill-opacity:1;}.aLgOaV3zRcolors-7 {fill:#AA8E78;fill-opacity:1;}.companyName {fill:#C0BAA7;fill-opacity:1;}.icon1 {fill:#EDEADC;fill-opacity:1;}.icon2 {fill:#C0BAA7;fill-opacity:1;}.icon3 {fill:#F7F7E9;fill-opacity:1;}.icon3-str {stroke:#F7F7E9;stroke-opacity:1;}</style><g opacity="1" transform="rotate(0 64.6143 362.8026)">
<svg width="364.9104" height="60" x="64.6143" y="362.8026" version="1.1" preserveAspectRatio="none" viewBox="1 -27.24 169.32 27.839999999999996">
  <g transform="matrix(1 0 0 1 0 0)" class="companyName"><path id="id-D6z1nYkh9" d="M21-22.40L21-13.48L20.20-13.48Q20.20-16.68 18.16-19.40Q16.12-22.12 12.32-22.12L12.32-22.12Q10.20-22.12 8.82-19.64Q7.44-17.16 7.44-11.16Q7.44-5.16 8.82-2.68Q10.20-0.20 13.14-0.20Q16.08-0.20 18.10-2.04Q20.12-3.88 20.60-7.24L20.60-7.24L21.40-7.24Q20.84-3.28 18.62-1.34Q16.40 0.60 13.32 0.60L13.32 0.60Q7.36 0.60 4.18-2.26Q1-5.12 1-11.22Q1-17.32 4.10-20.12Q7.20-22.92 12.32-22.92L12.32-22.92Q15.08-22.92 17.68-21.44L17.68-21.44Q18.52-20.92 19.06-20.92Q19.60-20.92 19.92-21.42Q20.24-21.92 20.24-22.40L20.24-22.40L21-22.40Z M32-26.80L32-0.80L34-0.80L34 0L24.00 0L24.00-0.80L26.00-0.80L26.00-26L24.00-26L24.00-26.80L32-26.80Z M56.20-0.80Q55.80-0.40 54.68-0.10Q53.56 0.20 52.08 0.20L52.08 0.20Q48.80 0.20 47.96-1.76L47.96-1.76Q45.96 0.32 41.84 0.32L41.84 0.32Q39.64 0.32 38.22-0.70Q36.80-1.72 36.80-3.72L36.80-3.72Q36.80-6.40 38.88-7.86Q40.96-9.32 46.16-9.92L46.16-9.92L47.76-10.12L47.76-12.08Q47.76-15.56 47.24-16.76Q46.72-17.96 45.18-17.96Q43.64-17.96 43.20-17.54Q42.76-17.12 42.88-16.58Q43-16.04 43.28-15.16Q43.56-14.28 43.56-13.76L43.56-13.76Q43.56-12.52 42.70-11.66Q41.84-10.80 40.62-10.80Q39.40-10.80 38.52-11.66Q37.64-12.52 37.64-13.76L37.64-13.76Q37.64-15.80 39.74-17.26Q41.84-18.72 46.02-18.72Q50.20-18.72 51.98-17.08Q53.76-15.44 53.76-11.28L53.76-11.28L53.76-4.08Q53.76-1.96 54.28-1.42Q54.80-0.88 56.20-1.20L56.20-1.20L56.20-0.80ZM42.36-4.52Q42.56-3 43.48-2.18Q44.40-1.36 45.62-1.36Q46.84-1.36 47.76-2.56L47.76-2.56L47.76-9.36L46.32-9.16Q44.48-8.92 43.34-7.76Q42.20-6.60 42.36-4.52L42.36-4.52Z M67.40-0.32L67.40-0.32Q71.56-0.32 71.56-2.60L71.56-2.60Q71.56-3.88 70.12-4.70Q68.68-5.52 66.64-6.04Q64.60-6.56 62.62-7.24Q60.64-7.92 59.34-9.40Q58.04-10.88 58.28-13.28Q58.52-15.68 60.74-17.24Q62.96-18.80 66.22-18.80Q69.48-18.80 71.48-17.76Q73.48-16.72 73.72-14.96L73.72-14.96Q73.88-13.88 73.38-12.96Q72.88-12.04 71.74-12Q70.60-11.96 69.86-12.60Q69.12-13.24 69.16-14.08Q69.20-14.92 69.80-15.58Q70.40-16.24 70.40-16.64L70.40-16.64Q70.40-17.32 69.10-17.66Q67.80-18 66.10-18Q64.40-18 63.32-17.24Q62.24-16.48 62.24-15.36Q62.24-14.24 63.58-13.44Q64.92-12.64 66.84-12.14Q68.76-11.64 70.66-11.02Q72.56-10.40 73.90-9.04Q75.24-7.68 75.24-5.60L75.24-5.60Q75.24-2.84 73.28-1.18Q71.32 0.48 67.36 0.48Q63.40 0.48 60.94-0.72Q58.48-1.92 58.24-3.80L58.24-3.80Q58.08-4.88 58.60-5.80Q59.12-6.72 60.24-6.76Q61.36-6.80 62.10-6.16Q62.84-5.52 62.80-4.68Q62.76-3.84 62.16-3.18Q61.56-2.52 61.56-2.12L61.56-2.12Q61.56-1.32 63.42-0.82Q65.28-0.32 67.40-0.32Z M86.40-0.32L86.40-0.32Q90.56-0.32 90.56-2.60L90.56-2.60Q90.56-3.88 89.12-4.70Q87.68-5.52 85.64-6.04Q83.60-6.56 81.62-7.24Q79.64-7.92 78.34-9.40Q77.04-10.88 77.28-13.28Q77.52-15.68 79.74-17.24Q81.96-18.80 85.22-18.80Q88.48-18.80 90.48-17.76Q92.48-16.72 92.72-14.96L92.72-14.96Q92.88-13.88 92.38-12.96Q91.88-12.04 90.74-12Q89.60-11.96 88.86-12.60Q88.12-13.24 88.16-14.08Q88.20-14.92 88.80-15.58Q89.40-16.24 89.40-16.64L89.40-16.64Q89.40-17.32 88.10-17.66Q86.80-18 85.10-18Q83.40-18 82.32-17.24Q81.24-16.48 81.24-15.36Q81.24-14.24 82.58-13.44Q83.92-12.64 85.84-12.14Q87.76-11.64 89.66-11.02Q91.56-10.40 92.90-9.04Q94.24-7.68 94.24-5.60L94.24-5.60Q94.24-2.84 92.28-1.18Q90.32 0.48 86.36 0.48Q82.40 0.48 79.94-0.72Q77.48-1.92 77.24-3.80L77.24-3.80Q77.08-4.88 77.60-5.80Q78.12-6.72 79.24-6.76Q80.36-6.80 81.10-6.16Q81.84-5.52 81.80-4.68Q81.76-3.84 81.16-3.18Q80.56-2.52 80.56-2.12L80.56-2.12Q80.56-1.32 82.42-0.82Q84.28-0.32 86.40-0.32Z M104.60-18.40L104.60-0.80L106.60-0.80L106.60 0L96.60 0L96.60-0.80L98.60-0.80L98.60-17.60L97-17.60L97-18.40L104.60-18.40ZM104.96-23.70Q104.96-22.24 103.94-21.22Q102.92-20.20 101.46-20.20Q100-20.20 98.96-21.22Q97.92-22.24 97.92-23.70Q97.92-25.16 98.96-26.20Q100-27.24 101.46-27.24Q102.92-27.24 103.94-26.20Q104.96-25.16 104.96-23.70Z M109-9.20L109-9.20Q109-13.92 111.76-16.36Q114.52-18.80 118.78-18.80Q123.04-18.80 125.12-16.66Q127.20-14.52 126.60-12.24L126.60-12.24Q126.28-11 125.26-10.42Q124.24-9.84 123.04-10.12L123.04-10.12Q120.52-10.72 120.52-13.04L120.52-13.04Q120.52-13.64 120.66-14.86Q120.80-16.08 120.76-16.64Q120.72-17.20 120.52-17.52L120.52-17.52Q120.12-18.20 118.64-18.04L118.64-18.04Q115.04-17.48 115.04-9.22Q115.04-0.96 120.92-0.96L120.92-0.96Q122.28-0.96 123.68-1.68Q125.08-2.40 125.76-3.40L125.76-3.40L126.32-3Q125.40-1.48 123.56-0.56Q121.72 0.36 119.44 0.36L119.44 0.36Q109 0.36 109-9.20Z M147.04-5.68L147.04-5.68Q147.04-3.16 145.86-1.38Q144.68 0.40 142.42 0.40Q140.16 0.40 137.16-1.10Q134.16-2.60 132.84-2.60L132.84-2.60Q130.48-2.60 129.92 0L129.92 0L129.12 0Q129.36-3.04 131.36-5.72L131.36-5.72Q132.72-7.52 137.12-11.84L137.12-11.84Q138.28-13 139.20-14.60Q140.12-16.20 140.12-18.04Q140.12-19.88 139.04-21.20Q137.96-22.52 135.84-22.52L135.84-22.52Q134.48-22.52 133.36-22Q132.24-21.48 132.24-20.82Q132.24-20.16 132.78-19.84Q133.32-19.52 133.94-19.34Q134.56-19.16 135.10-18.52Q135.64-17.88 135.64-16.80Q135.64-15.72 134.86-14.96Q134.08-14.20 132.72-14.20Q131.36-14.20 130.48-15.20Q129.60-16.20 129.60-17.76L129.60-17.76Q129.60-20.20 131.70-21.84Q133.80-23.48 137.58-23.48Q141.36-23.48 144-21.84Q146.64-20.20 146.64-17.32L146.64-17.32Q146.64-14.96 145.54-13.32Q144.44-11.68 142.74-10.84Q141.04-10 139.26-9.38Q137.48-8.76 135.78-7.94Q134.08-7.12 133.36-6.04L133.36-6.04Q134.32-6.84 135.84-6.84Q137.36-6.84 139.30-6.32Q141.24-5.80 142.36-5.80Q143.48-5.80 144.20-5.92Q144.92-6.04 145.56-6.60Q146.20-7.16 146.32-8.20L146.32-8.20L146.72-8.20Q147.04-6.92 147.04-5.68Z M170.32-11.46Q170.32-6.04 167.64-2.78Q164.96 0.48 160.42 0.48Q155.88 0.48 153.26-2.76Q150.64-6 150.64-11.92L150.64-11.92Q150.64-16.80 153.26-20.14Q155.88-23.48 160.54-23.48Q165.20-23.48 167.76-20.18Q170.32-16.88 170.32-11.46ZM164.36-11.92Q164.36-22.68 160.48-22.68Q156.60-22.68 156.60-11.92L156.60-11.92Q156.60-6.16 157.44-3.24Q158.28-0.32 160.52-0.32Q162.76-0.32 163.56-3.20Q164.36-6.08 164.36-11.92L164.36-11.92Z"/></g>
</svg>
</g><g opacity="1" transform="rotate(0 174.0874 149.8945)">
<svg width="145.9642" height="172.9081" x="174.0874" y="149.8945" version="1.1" preserveAspectRatio="none" viewBox="7.789771556854248 -0.0000133514404296875 84.4173812866211 100.000244140625">
  <g transform="matrix(1 0 0 1 0 0)" class="icon1"><path d="m46.152 52.875c-1.625-0.40234-4.7305-0.54688-8.1953 2.5234-3.4609-3.0703-6.5625-2.9258-8.1914-2.5234-2.8438 0.70312-5.0664 3.0469-5.9453 6.2617-1.2344 4.5117 0.44141 9.582 4.4805 13.562l8.625 8.5c0.28516 0.28125 0.65625 0.42188 1.0273 0.42188s0.74219-0.14062 1.0273-0.42188l8.6328-8.5c4.043-3.9805 5.7188-9.0508 4.4805-13.562-0.875-3.2148-3.0977-5.5547-5.9414-6.2617zm-0.58984 17.738-7.6055 7.4883-7.5977-7.4844c-3.2773-3.2266-4.6641-7.2266-3.7109-10.703 0.59766-2.1797 2.0273-3.7461 3.8242-4.1914 0.34766-0.085937 0.70312-0.12891 1.0625-0.12891 1.7344 0 3.5977 0.98438 5.3516 2.8555 0.27734 0.29688 0.66406 0.46094 1.0664 0.46094 0.40625 0 0.79297-0.16797 1.0664-0.46094 2.1211-2.2617 4.4023-3.2266 6.4219-2.7266 1.8008 0.44531 3.2305 2.0156 3.8242 4.1914 0.95703 3.4727-0.42969 7.4727-3.7031 10.699z"></path><path d="m91.938 99.383c0.19531-0.27344 0.28906-0.61328 0.26562-0.94922l-5.0195-71.504c-0.054688-0.76563-0.69141-1.3633-1.4609-1.3633h-6.6875l0.003906-8.8555c0-9.2148-7.5195-16.711-16.758-16.711-4.6836 0-9.1562 1.9727-12.332 5.4258-3.0664-3.332-7.4648-5.4258-12.348-5.4258-9.2383 0-16.75 7.4961-16.75 16.711v8.8555h-6.582c-0.76953 0-1.4062 0.59375-1.4609 1.3633l-5.0156 71.504c-0.027344 0.40625 0.11328 0.80469 0.39062 1.1016s0.66406 0.46484 1.0703 0.46484h81.492c0.46875 0 0.92188-0.23438 1.1914-0.61719zm-7.5742-70.887 4.6562 66.355-13.383-12.82v-53.535zm-32.461-20.859c2.6328-2.9922 6.418-4.707 10.379-4.707 7.625 0 13.828 6.1836 13.828 13.781v8.8555h-2.9727v-8.5c0-5.9727-4.8711-10.832-10.855-10.832-3.7109 0-6.9922 1.8711-8.9492 4.7148-0.41016-1.1133-0.94141-2.168-1.5703-3.1562 0.054687-0.058594 0.10156-0.11328 0.14062-0.15625zm18.305 9.4297v8.5h-15.848v-8.5c0-4.3594 3.5547-7.9023 7.9219-7.9023 4.3711 0 7.9258 3.543 7.9258 7.9023zm-46.426-0.35547c0-7.5977 6.1992-13.781 13.82-13.781 7.625 0 13.828 6.1836 13.828 13.781v17.117c0 0.83594-0.66797 1.5156-1.4883 1.5156-0.81641 0-1.4844-0.67969-1.4844-1.5156v-16.766c0-5.9727-4.8711-10.832-10.855-10.832-5.9844 0-10.852 4.8594-10.852 10.832v16.805c0 0.8125-0.66797 1.4766-1.4883 1.4766-0.81641 0-1.4844-0.66016-1.4844-1.4766zm21.75 0.35547v8.5h-15.848l-0.003906-8.5c0-4.3594 3.5547-7.9023 7.9219-7.9023 4.3711 0 7.9297 3.543 7.9297 7.9023zm10.695 80.004h-45.402l4.8086-68.574h5.2188v5.3711c0 2.4297 1.9805 4.4062 4.4141 4.4062 2.4375 0 4.418-1.9766 4.418-4.4062v-5.3711h15.848v5.332c0 2.4492 1.9805 4.4453 4.4141 4.4453 2.4375 0 4.418-1.9922 4.418-4.4453v-5.332h6.6797zm7.7461-68.574h8.7305v53.535l-13.387 12.82zm10.199 56.188 12.926 12.387h-25.859z"></path></g>
</svg>
</g></svg></svg>