<svg version="1.1" preserveAspectRatio="none" xmlns="http://www.w3.org/2000/svg" width="500" height="500" viewBox="0 0 500 500"><rect width="100%" height="100%" fill="#491503" fill-opacity="1"/><svg viewBox="79.3358 174.9507 385.1035 290" width="333" height="250.76375571761878" x="83.5px" y="124.6181px" xmlns="http://www.w3.org/2000/svg" xmlns:xlink="http://www.w3.org/1999/xlink" preserveAspectRatio="none"><defs></defs><style>.aLgOaV3zRcolors-3 {fill:#EDEADC;fill-opacity:1;}.aLgOaV3zRcolors-4 {fill:#AE360E;fill-opacity:1;}.aLgOaV3zRcolors-5 {fill:#772306;fill-opacity:1;}.aLgOaV3zRcolors-6 {fill:#DD5419;fill-opacity:1;}.aLgOaV3zRcolors-7 {fill:#AA8E78;fill-opacity:1;}.companyName {fill:#C0BAA7;fill-opacity:1;}.icon1 {fill:#EDEADC;fill-opacity:1;}.icon2 {fill:#C0BAA7;fill-opacity:1;}.icon3 {fill:#F7F7E9;fill-opacity:1;}.icon3-str {stroke:#F7F7E9;stroke-opacity:1;}</style><g opacity="1" transform="rotate(0 218.478 174.9507)">
<svg width="106.8191" height="200" x="218.478" y="174.9507" version="1.1" preserveAspectRatio="none" viewBox="60.177955627441406 25.44963836669922 79.63500213623047 149.10244750976562">
  <g transform="matrix(1 0 0 1 0 0)"><g><path d="M78.77 172.117c-.509-.305-1.037-.619-1.533-.968-.647-.454-1.277-.935-1.907-1.414-.327-.25-.653-.499-.982-.744l-.142-.105c-.767-.573-1.534-1.146-2.315-1.698-.155-.11-.325-.197-.496-.285-.17-.088-.34-.175-.496-.283a51.57 51.57 0 01-1.302-.936c-.602-.442-1.205-.885-1.835-1.293-.827-.534-1.618-1.152-2.383-1.749a57.905 57.905 0 00-1.289-.988 43.733 43.733 0 00-1.177-.83c-.331-.228-.661-.455-.987-.69a4.147 4.147 0 01-.463-.412l-.303-.289 11.165-23.609h1.312l1.199.776c.859.568 1.735 1.148 2.593 1.752 1.284.903 2.56 1.818 3.836 2.732 1.025.735 2.05 1.47 3.08 2.198.242.171.499.32.756.471.28.163.56.326.82.515l.691.507c1.141.839 2.32 1.706 3.586 2.399.211.115.387.293.572.48.091.092.186.188.292.284l.054.049-.315.688c-.194.422-.383.832-.567 1.245-.08.179-.153.361-.227.544-.104.256-.207.513-.326.761-.288.601-.582 1.198-.875 1.795-.264.537-.528 1.073-.788 1.612a73.763 73.763 0 00-.821 1.786l-.642 1.442c-.308.697-.615 1.395-.936 2.086-.206.445-.408.893-.61 1.34-.573 1.27-1.165 2.582-1.85 3.818a26.066 26.066 0 00-.887 1.82c-.315.693-.642 1.41-1.037 2.086-.407.695-.718 1.466-1.019 2.212a37.06 37.06 0 01-.434 1.046c-.021.05-.057.084-.11.135l-.161.165c.003-.001-.514-.315-.741-.451zm-3.517-13.355c-.539 1.242-.435 2.172.377 2.968.476.229.988.359 1.455.359.608 0 1.103-.222 1.392-.623.741-1.029.556-2.09-.551-3.153l-.944-.135-.591-.095-1.138.679zm-6.393-5.628c-.145 0-.295.012-.452.034-1.08.515-1.577 1.254-1.448 2.189.119.866.759 1.46 1.903 1.764 1.281-.334 1.281-.334 2.043-1.371l-.02-1.275c-.484-.9-1.131-1.341-2.026-1.341zm7.114-2.582c-.245.038-.477.074-.691.157-.22.085-.421.217-.617.345a7.475 7.475 0 01-.238.151c-.382.635-.489 1.392-.26 2.043.187.529.568.92 1.076 1.098.243.086.483.129.714.129.938 0 1.695-.713 2.076-1.955-.481-1.427-.485-1.438-1.77-2.017-.096.018-.193.033-.29.049zm5.972-1.731c-.142.108-.263.199-.37.306a4.888 4.888 0 00-.568.65c-.183.265-.239.832-.137 1.381.083.444.253.792.456.93.559.383 1.015.553 1.477.553.247 0 .489-.049.741-.149.854-.342 1.308-1.004 1.277-1.863-.032-.909-.584-1.582-1.476-1.801a6.236 6.236 0 00-.863-.131 9.979 9.979 0 01-.328-.036l-.209.16zm-7.069-5.139c-.139 0-.282.013-.43.036l-.909.473-.393.65-.368.585c.118.121.153.36.187.592.052.359.101.698.432.962.444.354.933.681 1.502.681.061 0 .123-.004.186-.012.582-.07 1.049-.327 1.353-.743.351-.48.458-1.15.308-1.937-.409-.846-1.04-1.287-1.868-1.287z" data-color="1" class="icon1"></path><path d="M72.388 135.922h1.249c1.212.812 2.492 1.636 3.735 2.511 2.315 1.629 4.605 3.294 6.916 4.93.505.357 1.076.622 1.576.985 1.398 1.017 2.764 2.079 4.288 2.913.297.162.521.458.844.751-.296.647-.58 1.254-.852 1.866-.191.431-.348.878-.552 1.303-.546 1.14-1.115 2.268-1.663 3.407-.319.664-.619 1.337-.921 2.009-.495 1.101-.97 2.211-1.478 3.306-.8 1.727-1.537 3.491-2.457 5.152-.705 1.273-1.186 2.645-1.922 3.904-.599 1.024-.978 2.176-1.458 3.269-.022.051-.078.086-.196.211-.726-.448-1.491-.872-2.203-1.372-.983-.689-1.925-1.438-2.888-2.156-.815-.608-1.629-1.218-2.459-1.806-.31-.219-.68-.352-.993-.568-1.057-.728-2.057-1.53-3.139-2.23-1.277-.826-2.44-1.828-3.666-2.734-.709-.524-1.45-1.004-2.165-1.521-.231-.167-.425-.386-.703-.644l11.107-23.486zm3.984 22.057l-1.17.697c-.512 1.138-.592 2.193.359 3.125 1.23.605 2.443.493 2.998-.277.763-1.058.591-2.175-.563-3.284l-1.624-.261zm5.754-9.423c-.257.205-.454.336-.62.5a4.884 4.884 0 00-.58.665c-.384.554-.209 2.073.344 2.45.686.469 1.418.769 2.311.413.994-.397 1.369-1.153 1.34-1.96-.034-.943-.613-1.664-1.552-1.894-.418-.104-.858-.123-1.243-.174zm-13.732 4.513c-1.009.476-1.682 1.219-1.533 2.302.147 1.07 1.01 1.59 1.976 1.847 1.366-.343 1.366-.343 2.15-1.408v-1.335c-.604-1.153-1.437-1.573-2.593-1.406zm4.299-7.696c.277.534.054 1.218.641 1.685.534.425 1.088.772 1.762.69 1.217-.148 2.067-1.115 1.747-2.798-.52-1.085-1.347-1.503-2.412-1.331l-.939.483-.799 1.271zm5.436 7.176c-.499-1.54-.499-1.54-1.853-2.151-.345.069-.707.093-1.03.218-.324.125-.611.349-.87.503-.845 1.359-.364 2.901.834 3.321 1.282.45 2.414-.243 2.919-1.891z" data-color="1" class="icon1"></path><path d="M115.339 158.356c-.198-.069-.385-.134-.554-.238a99.645 99.645 0 01-2.982-1.904 90.516 90.516 0 01-1.706-1.176c-.466-.326-.933-.652-1.402-.971a25.45 25.45 0 00-1.07-.673l-.603-.368 1.154-2.382.069.007c.248.023.492.041.732.041.552 0 .99-.1 1.382-.313.639-.35.786-.949.941-1.585l.03-.12c-.204-1.135-1.043-1.956-2.042-1.956-.616 0-1.243.308-1.813.892l-.061.062-4.194-3.074.277-1.042-.11-.312-.271-.896c-.516-.537-1.071-.817-1.677-.817-.531 0-1.096.216-1.727.659l-.058.04-4.544-3.174.036-.076c1.393-2.936 2.775-5.865 4.167-8.814 1.176-2.491 3.608-7.635 3.608-7.635l22.308 15.896-9.523 20.067c0-.001-.276-.105-.367-.138zm.145-21.266c-1.607 0-2.024.94-2.208 1.76-.153.688.554 1.828 1.328 2.139.149.06.322.09.514.09.717 0 1.514-.417 1.814-.95.657-1.16.409-2.061-.828-3.012a9.565 9.565 0 00-.62-.027zm-8.429-5.002a1.4 1.4 0 00-.737.194c-.636.384-1.062 1.333-.913 2.033.192.898.307 1.433 2.062 1.771 1.708-.529 2.032-1.239 1.462-3.3-.66-.437-1.322-.698-1.874-.698z" data-color="1" class="icon1"></path><path d="M125.104 138.459l-9.448 19.907c-.303-.12-.584-.188-.818-.333-1.002-.62-2-1.247-2.98-1.902-1.047-.699-2.066-1.441-3.108-2.147-.505-.342-1.036-.646-1.6-.995l1.085-2.238c.765.072 1.487.091 2.172-.284.72-.394.851-1.085 1.021-1.769-.325-1.891-2.27-2.953-4.024-1.159l-4.069-2.982.26-.977-.383-1.262c-1.138-1.218-2.323-1.078-3.557-.211l-4.418-3.085c2.569-5.416 5.107-10.816 7.724-16.341l22.143 15.778zm-8.939-1.422c-2.171-.283-2.754.755-2.986 1.791-.165.739.586 1.931 1.388 2.253.771.31 2.029-.153 2.453-.904.675-1.193.418-2.161-.855-3.14zm-7.14-4.277c-1.104-.779-2.085-.971-2.759-.564-.651.393-1.121 1.381-.959 2.14.196.918.311 1.496 2.141 1.849 1.811-.549 2.164-1.304 1.577-3.425z" data-color="1" class="icon1"></path><path d="M123.643 136.377a24.614 24.614 0 01-.657-.451s-3.069-2.21-3.852-2.769a992.236 992.236 0 00-4.27-3.015c-.325-.229-.653-.454-.981-.679-.592-.407-1.185-.813-1.764-1.24a111.9 111.9 0 00-3.535-2.518c-1.137-.771-2.261-1.602-3.349-2.404l-1.275-.938c-.055-.041-.09-.092-.139-.162l-.163-.219.068-.062c.744-.672 1.577-1.244 2.383-1.798.59-.405 1.2-.825 1.768-1.278 1.014-.811 2.089-1.577 3.13-2.318l1.123-.805c.978-.707 1.959-1.408 2.973-2.133l1.421-1.016s1.726 1.224 2.332 1.648c.195.138.394.271.592.404.189.128.379.256.566.387.883.616 1.765 1.232 2.644 1.854.473.335 2.508 1.791 2.508 1.791l3.177 2.255c.192.136.379.277.567.42l.878.657c.415.311.831.622 1.257.919.452.315.911.622 1.37.93.443.297.887.594 1.324.898.679.471 1.347.957 2.006 1.454.621.468 1.237.943 1.868 1.431l.834.645-.062.079c-.335.431-.748.799-1.299 1.158-.976.635-1.934 1.335-2.859 2.013l-.293.214c-.752.549-1.5 1.104-2.248 1.659-.672.498-1.343.996-2.018 1.49a225.712 225.712 0 01-3.092 2.219c-.193.137-.4.256-.617.38l-.369.215-1.947-1.315zm4.496-12.549c-.723 0-1.311.396-1.906 1.286l.017 1.577c.102.026.242.146.386.27.325.279.662.567 1.044.712.181.068.37.103.563.103.428 0 .87-.172 1.247-.485.398-.331.639-.8.714-1.395.082-.631-.289-1.058-.682-1.509a10.71 10.71 0 01-.277-.329c-.394-.145-.769-.23-1.106-.23zm-6.79-1.557c-.327 0-.656.104-.935.204-.742.27-1.369 1.337-1.064 2.31.258.823 1.074 1.493 1.82 1.493.063 0 .127-.005.189-.015 1.322-.218 1.928-1.018 1.903-2.518-.803-1.316-1.478-1.474-1.913-1.474zm-7.717-.855c-.214 0-.433.019-.658.052-.863.629-1.223 1.273-1.122 2.073.127 1.014.767 1.617 1.954 1.844.857-.221 1.407-.544 1.689-1.018.293-.494.311-1.181.055-2.159-.479-.52-1.113-.792-1.918-.792z" data-color="1" class="icon1"></path><path d="M103.794 121.995c1.284-1.16 2.804-1.999 4.145-3.072 1.371-1.097 2.825-2.09 4.249-3.12 1.409-1.019 2.826-2.026 4.335-3.107.713.505 1.492 1.059 2.275 1.608.383.268.775.523 1.158.791.883.616 1.765 1.232 2.644 1.854.838.593 1.67 1.195 2.507 1.79 1.058.753 2.12 1.501 3.177 2.255.3.213.589.441.885.66.604.447 1.2.907 1.817 1.337.891.62 1.804 1.209 2.696 1.828.677.47 1.343.956 2.002 1.452.867.652 1.722 1.321 2.622 2.013-.353.454-.777.812-1.275 1.136-1.079.702-2.116 1.47-3.156 2.229-1.428 1.042-2.84 2.106-4.266 3.15a217.201 217.201 0 01-3.09 2.218c-.284.201-.597.361-.926.558l-1.895-1.281c-.219-.148-.439-.295-.654-.449-1.285-.922-2.565-1.852-3.853-2.769a910.86 910.86 0 00-4.269-3.015c-.913-.641-1.845-1.256-2.743-1.917a111.638 111.638 0 00-3.539-2.521c-1.572-1.066-3.085-2.22-4.621-3.34-.066-.05-.107-.137-.225-.288zm19.568 1.748c-1.101-1.841-2.025-1.709-2.982-1.362-.802.291-1.445 1.414-1.126 2.433.302.964 1.292 1.682 2.121 1.547 1.359-.223 2.013-1.067 1.987-2.618zm5.96.252c-1.401-.563-2.296-.246-3.173 1.064v1.632c.466.35.925.861 1.495 1.076.636.24 1.34.073 1.909-.4.459-.381.678-.897.75-1.459.107-.834-.519-1.329-.981-1.913zm-15.535 1.488c1.846-.455 2.365-1.368 1.859-3.3-.724-.812-1.649-.969-2.687-.814-.743.529-1.331 1.194-1.207 2.185.144 1.152.931 1.718 2.035 1.929z" data-color="1" class="icon1"></path><path d="M95.618 173.712c-.574-.04-1.135-.079-1.696-.111-.459-.026-.918-.049-1.377-.071-.486-.023-.971-.047-1.457-.076 0 0-4.318-.261-5.222-.312-.25-.015-.501-.02-.752-.025-.223-.005-.445-.009-.667-.021-.898-.046-3.799-.206-3.799-.206l-.022-.063c-.199-.558.032-.934.235-1.267.061-.1.121-.196.167-.297.321-.703.672-1.394 1.024-2.084.312-.612.624-1.224.914-1.846.399-.854.773-1.721 1.147-2.586.242-.561.485-1.122.734-1.68.086-.193.193-.376.3-.56.083-.144.167-.287.241-.436l.063-.129c.548-1.117 1.098-2.235 1.627-3.361.23-.489.45-.984.669-1.479.208-.468.415-.936.631-1.399.362-.776.737-1.547 1.111-2.316 0 0 1.437-2.967 1.719-3.558.186-.389.368-.78.554-1.184l.267-.574.068.004c2.14.129 4.276.224 6.418.317 3.068.135 6.241.274 9.415.522l.132.01-.228.641a9.274 9.274 0 01-.341.898 529.154 529.154 0 01-2.635 5.605c-.301.633-.608 1.262-.917 1.892-.36.737-.722 1.474-1.07 2.217-.271.575-.525 1.159-.779 1.742-.157.361-.314.723-.476 1.082-.108.242-.224.481-.339.72-.102.21-.203.419-.299.631l-.607 1.344c-.341.759-.683 1.519-1.037 2.272a96.171 96.171 0 01-.814 1.68c-.233.473-.467.945-.693 1.421-.276.581-.542 1.168-.811 1.762l-.432.948-.966-.067zm-.132-9.498l-1.395.58-.386.88-.227.481c.295 1.038.69 1.758 1.763 1.93a2.7 2.7 0 00.423.035c.682 0 1.234-.301 1.596-.869.414-.651.284-1.3.133-2.051l-.271-.236c-.492-.386-.956-.75-1.614-.75v-.1l-.022.1zm-5.735-.881c-.604 0-1.114.312-1.513.927-.266.409-.352.84-.256 1.279.136.622.626 1.216 1.419 1.72.088.001.214.009.337.009.882 0 1.651-.423 2.006-1.104.345-.661.257-1.451-.242-2.167-.629-.433-1.227-.664-1.751-.664zm8.609-5.437c-.622 0-1.285.438-2.027 1.34-.119.813-.011 1.474.341 1.916.346.434.919.669 1.754.722l.114.003c.439 0 .827-.167 1.121-.483.443-.479.658-1.28.588-2.199-.644-.858-1.269-1.299-1.891-1.299zm-5.565-.881c-.669 0-1.251.244-1.639.688-.416.476-.579 1.143-.473 1.931l.688.724.48.523a.63.63 0 01.2-.022c.061 0 .127.003.192.006.167.008.329.015.487.015.439 0 .902-.052 1.309-.427.976-1.674.902-2.147-.542-3.359a3.35 3.35 0 00-.702-.079zm8.094-5.389c-.729 0-1.248.295-1.631.929-.572.944-.136 1.701.369 2.578l.142.248.604.026 1.428.161.978-1.214.12-.141c.263-1.145-.265-1.787-.93-2.446-.407-.087-.765-.141-1.08-.141zm-5.347-.98c-.566 0-1.205.283-1.952.867l-.291 1.396c.473 1.126 1.097 1.702 1.903 1.702.394 0 .834-.129 1.384-.405.359-.181.636-.562.758-1.048.138-.548.053-1.132-.222-1.524-.464-.664-.981-.988-1.58-.988z" data-color="1" class="icon1"></path><path d="M80.718 172.792c-.241-.676.203-1.061.398-1.488.606-1.328 1.32-2.607 1.938-3.93.658-1.408 1.248-2.848 1.882-4.267.153-.343.373-.654.539-.992.57-1.16 1.141-2.321 1.691-3.491.448-.953.855-1.925 1.301-2.88.497-1.065 1.017-2.119 1.528-3.177.434-.899.872-1.796 1.302-2.696.264-.552.519-1.109.793-1.697 5.249.317 10.474.422 15.831.84-.199.544-.328.99-.52 1.407a571.676 571.676 0 01-2.633 5.604c-.654 1.374-1.341 2.732-1.989 4.109-.439.932-.833 1.886-1.255 2.826-.204.454-.431.897-.638 1.35-.549 1.204-1.081 2.417-1.643 3.616-.487 1.04-1.014 2.062-1.507 3.099-.413.87-.803 1.751-1.214 2.649-.895-.06-1.744-.124-2.595-.173-.944-.055-1.89-.092-2.834-.147-1.741-.101-3.481-.213-5.222-.313-.473-.027-.948-.022-1.421-.046-1.235-.063-2.469-.134-3.732-.203zm21.32-21.096c-1.159-.292-2.187-.314-2.866.807-.66 1.088-.037 1.959.509 2.927l2.108.238 1.185-1.39c.298-1.247-.267-1.919-.936-2.582zm-8.836 1.191c.891 2.212 2.169 2.043 3.43 1.408.882-.443 1.15-1.895.573-2.719-.924-1.319-2.097-1.375-3.676-.141l-.327 1.452zm3.054 6.285c-.355 2.177.889 2.721 2.166 2.801 1.283.08 2.055-1.119 1.929-2.787-1.351-1.849-2.58-1.853-4.095-.014zm-4.67 4.767c-1.471-1.024-2.653-.932-3.431.266-.679 1.046-.226 2.237 1.193 3.138 2.105.265 3.471-1.635 2.238-3.404zm1.977-6.923c-1.668-.434-3.259.547-2.978 2.63l1.193 1.301c.886.011 1.673.184 2.33-.423 1.013-1.728.931-2.27-.545-3.508zm3.915 8.095c-.622-.464-1.153-1.007-1.993-.997l-1.432.587-.665 1.411c.289 1.106.69 1.888 1.838 2.072.882.141 1.64-.127 2.119-.879.449-.706.289-1.414.133-2.194z" data-color="1" class="icon1"></path><path d="M105.626 148.046c-.284-.024-.523-.045-.764-.057l-8.952-.405c-1.229-.053-2.457-.105-3.684-.188-.351-.022-.745-.157-1.111-.381-1.578-.96-3.088-2.073-4.547-3.149l-.234-.173a6.75 6.75 0 00-.797-.482 8.291 8.291 0 01-.711-.42c-.288-.196-.561-.415-.834-.633-.252-.201-.504-.403-.769-.588-.546-.384-1.099-.757-1.652-1.131-.561-.378-1.121-.757-1.674-1.146a210.591 210.591 0 01-2.259-1.615c-.486-.351-.973-.702-1.461-1.051-.177-.126-.358-.245-.54-.365-.19-.125-.379-.25-.564-.383-.126-.091-.24-.199-.354-.307l-.212-.195.184-.322.931.049c.619.032 1.238.063 1.856.103l2.145.141c1.05.07 2.1.141 3.151.202.204.011.408.015.613.015l.689-.004c.159 0 .317.002.476.008l.74.025c1.113.037 2.263.076 3.392.172.442.038.893.299 1.237.521 1.244.807 2.468 1.652 3.518 2.381.165.115.316.245.469.376.172.147.345.296.542.424.938.61 1.864 1.272 2.76 1.913.473.339.947.677 1.424 1.01 1.291.9 2.587 1.793 3.883 2.687l1.979 1.363c.445.305.89.609 1.325.927.095.068.156.167.243.304.046.073.101.159.172.261l.122.174-.732-.061zm-15.451-9.163c-.532 0-1.068.27-1.638.822-.291.282-.278.654-.266 1.048.004.141.009.279 0 .414-.032.464.246.771.54 1.096.113.125.225.249.317.38.458.123.813.217 1.117.217.431 0 .785-.185 1.465-.624.909-1.57.657-2.169-.222-2.836-.456-.348-.886-.517-1.313-.517z" data-color="1" class="icon1"></path><path d="M74.748 135.159c.908.049 1.817.091 2.724.148 1.766.111 3.53.239 5.296.342.592.034 1.187-.003 1.78.019 1.377.05 2.755.081 4.127.197.41.035.831.273 1.19.506 1.187.77 2.354 1.572 3.516 2.379.352.245.64.56 1.013.802 1.424.927 2.786 1.948 4.181 2.921 1.811 1.262 3.632 2.511 5.449 3.766.581.401 1.167.794 1.737 1.209.123.089.19.256.391.541-.539-.042-.912-.082-1.285-.099-2.567-.12-5.135-.234-7.702-.351-1.644-.075-3.289-.133-4.931-.242-.363-.024-.75-.174-1.066-.366-1.657-1.009-3.213-2.167-4.774-3.318-.47-.347-1.028-.573-1.511-.904-.553-.379-1.052-.836-1.602-1.221-1.1-.771-2.226-1.504-3.326-2.276-1.249-.876-2.478-1.779-3.72-2.665-.362-.258-.743-.489-1.104-.748-.179-.129-.332-.294-.496-.442l.113-.198zm17.017 7.16c.954-1.625.724-2.287-.215-3-1.137-.863-2.109-.631-3.082.315-.432.419-.261 1.011-.296 1.526-.048.695.544 1.07.875 1.54 1.293.408 1.555.371 2.718-.381z" data-color="1" class="icon1"></path><path d="M126.108 138.29c1.982-1.33 3.905-2.733 5.766-4.09 1.995-1.455 4.059-2.961 6.168-4.34l.215-.141-.063.249c-.377 1.48-.868 2.66-1.545 3.714-.151.236-.253.501-.361.78a7.419 7.419 0 01-.204.494 741.71 741.71 0 01-2.335 4.939c-.342.716-.688 1.431-1.033 2.146a297.167 297.167 0 00-1.591 3.322 47.15 47.15 0 00-.875 2.025l-.306.734c-.342.814-1.018 1.307-1.739 1.78a20.301 20.301 0 00-2.155 1.608c-.489.422-1.051.771-1.595 1.108-.3.187-.601.373-.891.572-.19.131-.366.282-.543.433a7.852 7.852 0 01-.471.382 572.527 572.527 0 01-4.697 3.414c-.107.078-.235.111-.412.158a6.671 6.671 0 00-.338.097l-.221.071 9.226-19.455zm.36 6.456c-1.066 0-1.444.503-1.739 1.019-.555.973-.275 1.832.904 2.785.324.026.65.053.935.053.997 0 1.465-.313 1.787-1.198.146-.404.109-.909.052-1.263-.067-.421-.372-.656-.694-.905-.177-.136-.359-.277-.496-.45-.237-.016-.509-.041-.749-.041zm2.189-5.815c-.489 0-.938.374-1.777 1.167.032.214-.036.499-.104.775s-.137.562-.137.851c.531.73 1.221 1.164 1.925 1.164.872.001 1.645-.686 2.017-1.789l-.081-.396-.169-.977c-.738-.494-1.242-.795-1.674-.795z" data-color="1" class="icon1"></path><path d="M138.097 129.944c-.342 1.34-.813 2.564-1.533 3.685-.25.39-.373.861-.572 1.286a765.997 765.997 0 01-2.334 4.939c-.871 1.824-1.767 3.638-2.625 5.468-.425.906-.793 1.839-1.181 2.763-.338.805-1.019 1.287-1.703 1.735a20.452 20.452 0 00-2.166 1.617c-.749.646-1.654 1.109-2.476 1.674-.357.245-.666.56-1.016.816a579.044 579.044 0 01-4.697 3.414c-.146.105-.355.122-.723.241l9.128-19.249c4.034-2.673 7.821-5.724 11.898-8.389zm-12.527 18.684c1.756.225 2.453-.023 2.878-1.19.144-.395.126-.885.057-1.312-.113-.709-.842-.936-1.211-1.402-1.715-.293-2.248.285-2.652.991-.656 1.15-.104 2.079.928 2.913zm.97-6.904c1.366 1.963 3.416 1.545 4.136-.593l-.246-1.423c-1.767-1.263-2.05-1.166-3.618.317.001.557-.272 1.104-.272 1.699z" data-color="1" class="icon1"></path><path d="M134.405 133.989l-6.531 4.645c-.449.32-.813.746-1.057 1.24l-6.174 12.506c-.236.479.309.965.757.675l6.494-4.194a4.031 4.031 0 001.489-1.732l5.673-12.606c.182-.405-.288-.791-.651-.534z" data-color="2" class="icon2"></path><path d="M79.14 95.195c-.44-.412-.613-.947-.515-1.591.174-1.153.412-2.67.704-4.174.123-.629.289-1.25.454-1.872l.206-.786.134-.533c.133-.535.266-1.07.422-1.598.045-.156.167-.57.629-.57a.87.87 0 01.168.017l.064.012s.039.145.05.18a.43.43 0 01.034.227l-.538 2.471c-.379 1.731-.758 3.461-1.109 5.197-.109.536-.132 1.103-.155 1.651-.008.203-.017.405-.029.607-.016.273-.034.578-.402.777l-.063.034-.054-.049z" data-color="1" class="icon1"></path><path d="M81.323 84.186c.032.132.085.223.069.3-.55 2.556-1.129 5.107-1.648 7.669-.15.74-.139 1.513-.186 2.272-.016.27-.029.521-.35.695-.445-.416-.57-.944-.485-1.503.211-1.394.435-2.787.704-4.17.174-.893.435-1.769.659-2.652.18-.71.347-1.425.554-2.127.082-.281.23-.567.683-.484z" data-color="1" class="icon1"></path><path d="M72.75 127.932c-.725-.647-.681-1.404-.565-2.188.236-1.595.478-3.017.738-4.347.115-.585.255-1.166.396-1.746.142-.588.285-1.176.4-1.77.1-.51.327-.832.76-1.076l.065-.037.054.053c.371.362.466.826.25 1.209-.3.533-.394 1.13-.485 1.707a9.94 9.94 0 01-.169.898 58.085 58.085 0 00-.652 3.006c-.085.43-.17.859-.26 1.288l-.089.396c-.15.643-.292 1.249-.095 1.898.042.138-.026.288-.097.446a2.274 2.274 0 00-.089.219l-.048.145-.114-.101z" data-color="1" class="icon1"></path><path d="M74.527 116.892c.343.336.423.751.233 1.088-.464.825-.443 1.756-.665 2.63-.36 1.418-.613 2.864-.912 4.298-.162.773-.429 1.531-.182 2.345.046.152-.106.365-.185.604-.706-.63-.639-1.378-.533-2.099.215-1.452.455-2.901.737-4.342.231-1.179.567-2.337.796-3.516.089-.453.276-.762.711-1.008z" data-color="1" class="icon1"></path><path d="M110.471 93.266a2.37 2.37 0 00-.221-.063c-.153-.038-.286-.071-.348-.175-.09-.149-.185-.296-.279-.443-.326-.505-.663-1.027-.807-1.688-.236-1.086-.542-2.177-.838-3.232a92.704 92.704 0 01-.557-2.05 19.765 19.765 0 01-.301-1.514c-.048-.28-.096-.56-.149-.839-.082-.416.101-.694.423-1.008l.117-.114.225.723c.112.356.216.684.303 1.017.365 1.399.723 2.8 1.069 4.204.108.436.209.873.311 1.31.145.624.288 1.248.452 1.867.073.28.228.564.425.78.271.298.285.607.302.998l.014.279-.141-.052z" data-color="1" class="icon1"></path><path d="M110.504 93.172c-.231-.082-.454-.091-.516-.195-.404-.673-.893-1.272-1.074-2.101-.388-1.779-.945-3.52-1.395-5.286-.196-.77-.296-1.565-.45-2.347-.069-.353.07-.6.395-.917.18.591.348 1.08.478 1.579.366 1.398.723 2.799 1.07 4.202.261 1.058.484 2.125.762 3.178.078.295.242.596.448.822.275.302.259.623.282 1.065z" data-color="1" class="icon1"></path><path d="M88.967 45.987c-.708-.438-.649-1.092-.597-1.669l.014-.162c.093-1.178.351-2.344.6-3.471.134-.605.267-1.209.377-1.818l.061-.339c.062-.35.124-.699.193-1.047.198-1.001.542-1.822 1.053-2.507l.045-.061.071.027c.431.168.357.503.309.726-.081.367-.167.732-.252 1.098-.176.75-.352 1.5-.485 2.258a73.115 73.115 0 01-.67 3.354c-.187.831-.255 1.668-.321 2.479l-.062.727c-.009.095-.063.173-.121.255-.024.036-.051.073-.074.114l-.051.09-.09-.054z" data-color="1" class="icon1"></path><path d="M90.748 35.034c.348.136.298.379.247.611-.247 1.12-.539 2.231-.738 3.36a74.027 74.027 0 01-.669 3.35c-.243 1.081-.285 2.143-.386 3.218-.01.104-.108.199-.182.329-.718-.444-.585-1.12-.536-1.738.142-1.792.658-3.518.976-5.279.083-.462.162-.924.253-1.384.176-.894.486-1.731 1.035-2.467z" data-color="1" class="icon1"></path><path d="M114.709 109.478c-.863-.567-1.33-1.191-1.56-2.086l-.135-.526c-.424-1.651-.862-3.36-1.337-5.027-.237-.825-.474-1.812-.433-2.878.004-.114.05-.219.112-.363.035-.08.076-.175.12-.293l.077-.208.104.196c.074.139.146.257.209.363.124.208.223.373.271.559.171.664.318 1.334.467 2.004l.349 1.567a67.6 67.6 0 00.462 2.003c.255 1.017.51 1.93.778 2.793.063.2.167.389.276.587.079.143.158.286.223.436.053.123.074.252.104.43.017.097.036.208.063.341l.05.237-.2-.135z" data-color="1" class="icon1"></path><path d="M114.764 109.394c-.892-.586-1.311-1.221-1.518-2.027-.476-1.856-.947-3.714-1.473-5.556-.268-.937-.465-1.872-.428-2.847.006-.151.104-.298.226-.626.215.402.403.636.471.9.232.905.423 1.821.629 2.734.214.947.411 1.899.648 2.84.236.939.492 1.873.78 2.797.113.361.351.681.503 1.033.074.174.084.377.162.752z" data-color="1" class="icon1"></path><path d="M106.277 77.119c-.896-.429-1.382-.99-1.578-1.819-.176-.744-.386-1.48-.596-2.216-.236-.829-.481-1.686-.671-2.542-.071-.323-.168-.643-.264-.963-.223-.741-.453-1.507-.377-2.326.018-.189.046-.377.073-.565l.047-.335.358-.079s.097.179.13.234c.076.127.155.259.191.407.134.544.261 1.089.388 1.635.171.735.343 1.47.529 2.201.388 1.511.805 3.014 1.222 4.518l.046.164c.026.095.081.186.14.282.05.083.101.167.136.255.095.241.178.485.261.729l.182.523-.217-.103z" data-color="1" class="icon1"></path><path d="M106.32 77.029c-.805-.386-1.322-.899-1.523-1.752-.377-1.596-.912-3.156-1.267-4.756-.239-1.078-.745-2.112-.638-3.258.026-.277.073-.551.11-.827l.215-.048c.095.183.23.356.278.551.314 1.277.591 2.563.917 3.837.401 1.567.835 3.125 1.268 4.684.054.194.203.358.279.548.132.336.242.68.361 1.021z" data-color="1" class="icon1"></path><path d="M85.098 61.572l.073-.795c.07-.586.144-1.198.239-1.806.152-.969.32-1.934.487-2.9l.189-1.091c.024-.182.038-.294.102-.379.394-.516.406-1.121.42-1.762l.003-.15.798-1.326.369.115-.005.079c-.01.151-.015.303-.02.455-.011.334-.022.679-.087 1.013-.199 1.03-.42 2.056-.641 3.082l-.28 1.308-.18.88a42.851 42.851 0 01-.448 2.047c-.103.401-.108.722-.02 1.071.049.192.007.398-.034.598a3.173 3.173 0 00-.044.249l-.01.082-.375.029-.536-.799z" data-color="1" class="icon1"></path><path d="M85.685 62.265l-.504-.749c.101-.795.192-1.666.328-2.53.209-1.333.448-2.66.676-3.99.02-.114.019-.251.083-.336.445-.583.426-1.269.443-1.969l.742-1.21.22.069c-.032.485-.013.981-.105 1.455-.284 1.467-.612 2.926-.921 4.388-.206.975-.383 1.958-.628 2.924-.099.389-.118.73-.019 1.12.063.247-.048.539-.08.81l-.235.018z" data-color="1" class="icon1"></path><path d="M113.062 92.457a2.58 2.58 0 00-.078-.239c-.057-.161-.111-.313-.08-.458.143-.659-.008-1.269-.166-1.916-.046-.189-.093-.379-.131-.569-.2-.987-.491-2.283-.967-3.56-.183-.488-.299-1.007-.411-1.508a15.939 15.939 0 00-.257-1.04 2.786 2.786 0 00-.268-.572c-.081-.146-.162-.291-.225-.443a4.842 4.842 0 01-.192-.628l-.178-.643.204.104c.784.399 1.229.893 1.443 1.6.106.351.193.707.28 1.063.066.269.132.538.206.804.093.34.192.678.292 1.016.134.453.267.905.385 1.362l.104.401c.306 1.182.621 2.404.871 3.62.1.487.062 1.172-.681 1.666l-.117.078-.034-.138z" data-color="1" class="icon1"></path><path d="M113.158 92.432c-.068-.263-.195-.475-.157-.651.19-.882-.128-1.693-.297-2.526-.246-1.213-.536-2.408-.971-3.575-.305-.816-.419-1.702-.666-2.542-.105-.359-.35-.674-.495-1.025-.114-.276-.171-.576-.303-1.04.802.409 1.198.899 1.392 1.54.186.614.314 1.246.485 1.865.218.794.471 1.579.677 2.376.344 1.334.697 2.668.974 4.016.116.571-.019 1.15-.639 1.562z" data-color="1" class="icon1"></path><path d="M82.596 78.927c-.667-.304-.704-.841-.66-1.275.096-.962.235-2.229.464-3.507.283-1.59.626-3.181.955-4.662.138-.628.414-1.208.844-1.773l.091-.119.217.374c.102.174.102.174.073.225-.192 1.478-.52 2.962-.837 4.398-.448 2.025-.911 4.12-1.004 6.253l-.007.148-.136-.062z" data-color="1" class="icon1"></path><path d="M84.278 67.77l.214.369c-.494 3.666-1.694 7.055-1.855 10.697-.612-.279-.644-.754-.602-1.175.117-1.17.256-2.342.463-3.499.278-1.56.611-3.11.954-4.658.132-.6.39-1.161.826-1.734z" data-color="1" class="icon1"></path><path d="M104.624 60.222c-.035-.163-.074-.302-.109-.427-.066-.239-.12-.428-.1-.618.109-.984-.168-1.869-.461-2.806-.071-.229-.144-.46-.209-.691-.394-1.382-.791-2.778-1.084-4.174-.151-.719-.35-1.218-.663-1.669-.1-.143-.158-.305-.227-.491-.031-.087-.158-.403-.158-.403l.136-.012c.057-.005.109-.007.161-.007.402 0 .679.153.843.469l.117.225c.308.59.626 1.2.783 1.905.424 1.895.969 3.77 1.446 5.378.309 1.041.5 2.011-.292 3.352l-.13.22-.053-.251z" data-color="1" class="icon1"></path><path d="M104.722 60.201c-.101-.467-.236-.749-.207-1.013.138-1.254-.344-2.375-.674-3.535-.393-1.38-.787-2.764-1.082-4.167-.132-.627-.318-1.186-.679-1.706-.138-.198-.197-.451-.322-.75.485-.043.753.113.906.408.35.677.718 1.327.892 2.106.405 1.812.919 3.602 1.448 5.384.278.939.517 1.918-.282 3.273z" data-color="1" class="icon1"></path><path d="M82.141 95.789c1.026-3.494 1.724-7.228 2.135-11.417l.021-.21.149.149c.753.754.731 1.525.595 2.247-.151.804-.317 1.604-.484 2.405-.144.693-.288 1.386-.422 2.081a28.754 28.754 0 00-.292 2.033c-.15 1.255-.657 2.179-1.548 2.822l-.237.171.083-.281z" data-color="1" class="icon1"></path><path d="M82.237 95.817c1.086-3.7 1.75-7.471 2.139-11.436.711.711.704 1.435.568 2.157-.282 1.499-.618 2.988-.907 4.486-.13.674-.212 1.358-.293 2.04-.133 1.112-.552 2.063-1.507 2.753z" data-color="1" class="icon1"></path><path d="M101.86 60.771c-.497-.194-.51-.21-1.188-1.055l-.434-1.501c-.303-1.065-.598-2.098-.88-3.135a59.915 59.915 0 01-.766-3.072c-.171-.791-.109-1.414.201-2.02l.098-.192.193.447c.086.188.172.376.224.573l.236.887c.489 1.84.979 3.681 1.434 5.53l.111.464c.209.891.407 1.732.885 2.501.059.095.046.216.033.333-.005.048-.011.098-.011.146v.146l-.136-.052z" data-color="1" class="icon1"></path><path d="M101.896 60.678c-.471-.184-.471-.184-1.145-1.024-.451-1.598-.886-3.095-1.296-4.6a58.911 58.911 0 01-.765-3.066c-.136-.629-.154-1.276.192-1.954.112.269.256.529.33.808.567 2.136 1.141 4.27 1.669 6.416.253 1.029.435 2.073 1.008 2.994.06.098.007.267.007.426z" data-color="1" class="icon1"></path><path d="M117.442 108.566a2.253 2.253 0 00-.096-.201c-.062-.122-.117-.229-.111-.343.069-1.254-.279-2.453-.616-3.612a27.797 27.797 0 01-.395-1.458c-.226-.976-.479-2.021-.812-3.06-.126-.396-.319-.783-.508-1.156a17.635 17.635 0 01-.285-.588 9.557 9.557 0 01-.195-.478l-.225-.568.201.063c.925.29 1.445.823 1.688 1.728.247.924.48 1.852.713 2.78.176.7.352 1.4.533 2.099.06.229.137.454.214.68.094.272.188.544.251.823.125.552.225 1.108.323 1.658l.141.766-.754 1.035-.067-.168z" data-color="1" class="icon1"></path><path d="M118.158 107.673l-.623.855c-.092-.222-.207-.365-.2-.501.099-1.787-.624-3.409-1.013-5.097-.238-1.031-.492-2.061-.813-3.068-.194-.608-.532-1.17-.798-1.756-.1-.22-.181-.449-.34-.846 1.002.314 1.421.908 1.622 1.658.434 1.621.823 3.254 1.246 4.878.132.506.348.991.464 1.5.18.793.308 1.597.455 2.377z" data-color="1" class="icon1"></path><path d="M76.062 111.538c-.75-.489-.65-1.293-.591-1.774.144-1.164.376-2.336.601-3.468l.203-1.036c.128-.669.263-1.337.398-2.004l.29-1.442c.114-.581.418-.971.956-1.225l.109-.052.03.117c.153.59.019 1.113-.111 1.62-.04.152-.078.304-.108.455-.084.427-.202.85-.319 1.271-.163.584-.332 1.188-.4 1.791-.077.685-.229 1.368-.377 2.028-.243 1.088-.494 2.214-.409 3.36.005.06-.021.108-.056.176l-.116.245-.1-.062z" data-color="1" class="icon1"></path><path d="M76.116 111.454c-.679-.442-.612-1.145-.546-1.678.187-1.509.516-3.002.802-4.498.22-1.15.462-2.296.688-3.445.102-.52.367-.902.9-1.154.192.742-.093 1.386-.221 2.031-.204 1.031-.603 2.033-.721 3.07-.205 1.813-.924 3.549-.786 5.408.004.051-.044.106-.116.266z" data-color="1" class="icon1"></path><path d="M108.943 76.26c-.258-.537-.277-1.075-.295-1.595-.017-.458-.032-.892-.206-1.301-.273-.643-.432-1.342-.584-2.018-.061-.268-.12-.535-.188-.799a43.214 43.214 0 01-.223-.945c-.134-.591-.272-1.202-.461-1.783-.203-.622-.468-1.237-.724-1.833-.114-.266-.229-.532-.338-.799l-.074-.183.191.048c.77.192 1.207.584 1.377 1.234a421.77 421.77 0 001.392 5.188c.225.823.466 1.642.717 2.458.289.941.164 1.644-.418 2.348l-.1.121-.066-.141z" data-color="1" class="icon1"></path><path d="M106.019 65.15c.713.178 1.139.53 1.304 1.162.451 1.733.919 3.462 1.392 5.189.225.824.467 1.644.718 2.461.235.767.235 1.486-.4 2.255-.471-.982-.115-1.991-.499-2.892-.376-.883-.527-1.862-.766-2.802-.231-.911-.396-1.843-.686-2.734-.293-.9-.704-1.761-1.063-2.639z" data-color="1" class="icon1"></path><path d="M100.355 43.964c-.026-.12-.061-.233-.093-.343-.07-.236-.136-.458-.115-.68.093-.986-.197-1.913-.478-2.81-.086-.275-.172-.55-.249-.828-.128-.469-.23-.945-.332-1.422-.122-.572-.248-1.165-.422-1.729-.069-.224-.125-.454-.183-.683-.163-.66-.332-1.342-.813-1.885-.119-.134-.152-.321-.191-.538-.018-.098-.036-.203-.065-.31l-.043-.16.162.037c1.048.237 1.331 1.043 1.558 1.69.281.8.481 1.641.675 2.455l.189.781c.304 1.218.598 2.438.893 3.659l.17.702c.226.937.176 1.153-.483 2.101l-.13.188-.05-.225z" data-color="1" class="icon1"></path><path d="M97.512 32.71c.981.222 1.255.968 1.486 1.626.368 1.047.592 2.146.861 3.227.362 1.451.711 2.906 1.062 4.36.22.911.18 1.089-.468 2.02-.082-.371-.235-.69-.206-.992.123-1.305-.398-2.466-.729-3.674-.286-1.042-.438-2.123-.755-3.155-.273-.886-.352-1.856-1.017-2.605-.151-.17-.145-.478-.234-.807z" data-color="1" class="icon1"></path><path d="M75.764 128.366c-.388-.439-.138-.794.012-1.005.377-.535.485-1.13.601-1.759.055-.302.111-.604.196-.897.16-.544.241-1.124.319-1.686.047-.335.093-.671.156-1.001.091-.481.193-.961.295-1.439.106-.497.212-.993.305-1.492.055-.293.033-.612.007-.857-.064-.604-.068-.648.147-1.244l.055-.151.111.116c.547.571.731 1.189.582 1.946-.207 1.047-.386 2.099-.565 3.15l-.376 2.206c-.109.666-.221 1.354-.392 2.017-.152.592-.468 1.167-.722 1.629-.086.16-.252.262-.412.36a2.27 2.27 0 00-.185.121l-.074.056-.06-.07z" data-color="1" class="icon1"></path><path d="M75.839 128.3c-.34-.385-.123-.681.024-.889.569-.808.545-1.787.806-2.678.255-.87.307-1.799.477-2.696.185-.98.417-1.951.6-2.932.054-.286.039-.593.009-.886-.063-.601-.076-.599.142-1.199.513.536.702 1.119.556 1.857-.302 1.528-.545 3.067-.815 4.602-.163.924-.284 1.86-.517 2.766-.144.561-.431 1.093-.713 1.606-.107.198-.378.305-.569.449z" data-color="1" class="icon1"></path><path d="M85.323 79.455h-.09l-.01-.089c-.041-.375.114-.666.263-.946l.054-.103c.345-.662.543-1.31.625-2.038.112-.987.335-1.976.551-2.932.086-.383.173-.766.252-1.149l.163-.751c.108-.494.217-.988.303-1.485.026-.152 0-.316-.027-.491a3.56 3.56 0 01-.035-.27l-.074-1.007.325-.187.055.051c.04.038.086.073.132.108.121.093.246.188.285.326.112.398.22.823.201 1.243-.029.592-.141 1.186-.249 1.76-.192 1.024-.379 1.959-.565 2.895 0 0-.577 2.936-.675 3.422-.126.618-.487 1.132-1.134 1.617l-.027.02-.109.019c.001.001-.17-.013-.214-.013z" data-color="1" class="icon1"></path><path d="M87.61 68.131c.135.128.346.235.39.389.111.393.216.81.197 1.211-.03.614-.149 1.226-.263 1.833-.255 1.356-.531 2.708-.798 4.061-.142.723-.279 1.446-.426 2.168-.138.677-.564 1.158-1.096 1.557-.052.039-.157.005-.291.005-.042-.389.15-.69.307-.992.34-.654.55-1.313.636-2.073.155-1.37.52-2.717.802-4.072.155-.747.336-1.489.466-2.24.043-.251-.04-.523-.061-.785-.025-.315-.046-.63-.069-.944l.206-.118z" data-color="1" class="icon1"></path><path d="M78.777 112.184c.026-.111.043-.221.059-.325.034-.223.066-.434.183-.594.49-.68.626-1.484.758-2.264.05-.297.101-.594.169-.885.245-1.031.426-2.098.603-3.129.108-.633.216-1.266.338-1.896.089-.457.172-.886.038-1.34-.074-.248-.03-.543.141-.925l.069-.156.769 1.026-.029.533c-.036.364-.075.751-.145 1.132-.175.966-.364 1.928-.553 2.89l-.97 5.028c-.205.139-.314.281-.431.433-.197.256-.419.545-.891.595l-.141.015.033-.138z" data-color="1" class="icon1"></path><path d="M80.108 111.261c-.43.193-.524.871-1.234.946.082-.345.072-.673.225-.884.69-.956.691-2.113.944-3.183.393-1.658.616-3.355.942-5.03.091-.469.177-.909.035-1.387-.072-.241-.013-.521.136-.857l.667.89c-.057.484-.092 1.042-.192 1.588-.252 1.389-.533 2.772-.801 4.158l-.722 3.759z" data-color="1" class="icon1"></path><path d="M88.538 63.037v-.069a1.41 1.41 0 00-.015-.178c-.019-.157-.038-.318.045-.435.598-.836.757-1.822.911-2.775.053-.326.105-.652.175-.974.099-.463.211-.923.322-1.383.09-.37.18-.74.263-1.111.042-.184.055-.374.068-.563l.009-.127c.042-.554.079-1.028.273-1.5.144-.35.086-.832.031-1.163-.072-.422.007-.742.257-1.038l.038-.045.058.012c.507.103.522.493.534.778a11.325 11.325 0 01-.368 3.344c-.186.723-.311 1.477-.433 2.206a35.44 35.44 0 01-.289 1.588c-.208.983-.44 1.819-.71 2.558-.097.265-.314.477-.525.682-.09.088-.181.176-.261.269l-.045.052-.338-.128z" data-color="1" class="icon1"></path><path d="M88.638 62.968c0-.188-.077-.431.012-.555.814-1.138.825-2.498 1.102-3.786.179-.834.398-1.66.585-2.493.052-.229.061-.469.079-.705.039-.498.065-.981.266-1.469.146-.354.104-.821.037-1.218-.066-.387-.001-.677.235-.957.42.085.442.379.454.684a11.27 11.27 0 01-.364 3.315c-.32 1.246-.455 2.538-.722 3.799-.182.86-.405 1.72-.707 2.544-.129.353-.504.616-.768.919l-.209-.078z" data-color="1" class="icon1"></path><path d="M109.209 83.435c-.375 0-.476-.261-.54-.505l-.319-1.185c-.399-1.475-.813-3-1.112-4.529-.057-.287-.131-.57-.205-.854a14.019 14.019 0 01-.206-.856c-.03-.15-.004-.308.024-.475.014-.078.028-.162.037-.251l.013-.122.629.198.485 1.669c.369 1.402.737 2.8 1.067 4.207.034.146.064.292.095.438.074.356.15.725.281 1.077.12.322.237.793-.133 1.158l-.029.029-.087.001z" data-color="1" class="icon1"></path><path d="M109.255 83.333c-.338.02-.423-.178-.489-.429-.504-1.896-1.053-3.78-1.431-5.708-.113-.575-.297-1.136-.411-1.711-.039-.198.034-.419.063-.696l.512.161c.503 1.941 1.03 3.864 1.485 5.804.12.511.194 1.026.38 1.527.126.338.205.743-.109 1.052z" data-color="1" class="icon1"></path><path d="M100.552 51.175c-.532-.823-.729-1.748-.919-2.643-.107-.503-.218-1.024-.387-1.511-.328-.942-.529-1.905-.743-2.925a60.145 60.145 0 00-.289-1.328l-.018-.076.561-.29.052.061c.032.038.067.072.103.105.082.08.167.162.198.271.265.931.513 1.868.757 2.805.045.175.081.352.115.528.034.17.067.34.11.507l.026.102c.293 1.131.586 2.262.9 3.386.088.316.144.684-.322 1.032l-.086.064-.058-.088z" data-color="1" class="icon1"></path><path d="M98.312 42.746l.421-.217c.104.122.245.215.28.339.265.931.513 1.867.757 2.803.089.342.137.694.225 1.035.302 1.165.603 2.331.927 3.49.097.346.105.632-.286.925-.821-1.271-.826-2.781-1.295-4.132-.469-1.348-.687-2.783-1.029-4.243z" data-color="1" class="icon1"></path><path d="M89.047 53.395c-.389-.308-.495-.552-.405-.936a84.68 84.68 0 00.954-4.655c.125-.697.25-1.393.398-2.084l.036-.197c.064-.391.144-.877.835-1.144l.13-.05.006.139c.006.139.019.271.03.395.025.257.048.5.002.729-.186.903-.388 1.803-.591 2.703-.14.621-.279 1.242-.414 1.864-.055.256-.096.515-.136.774-.05.323-.101.646-.179.962-.08.323-.2.636-.329.972-.06.155-.228.615-.228.615l-.109-.087z" data-color="1" class="icon1"></path><path d="M90.901 44.472c.018.428.099.779.034 1.099-.314 1.526-.675 3.043-1.004 4.566-.124.574-.174 1.164-.315 1.733-.116.469-.318.917-.507 1.446-.359-.284-.45-.493-.37-.834.25-1.058.473-2.122.683-3.188.233-1.183.417-2.375.67-3.553.093-.434.058-.979.809-1.269z" data-color="1" class="icon1"></path><path d="M85.95 69.662c-.26-.021-.432-.099-.525-.236-.087-.127-.098-.294-.033-.508.247-.817.396-1.673.542-2.501.079-.452.158-.903.252-1.35.085-.404.188-.805.292-1.207.198-.772.404-1.572.47-2.38.012-.157.081-.301.153-.453.032-.067.065-.136.094-.208l.034-.087.089.028c.672.214.643.591.555.959-.106.446-.218.892-.33 1.337-.291 1.16-.592 2.359-.79 3.553a32.764 32.764 0 01-.424 2.162 4.741 4.741 0 01-.184.571l-.116.327-.079-.007z" data-color="1" class="icon1"></path><path d="M87.286 60.854c.603.192.569.501.488.841-.389 1.63-.848 3.248-1.121 4.897-.12.724-.256 1.442-.423 2.155-.065.278-.18.544-.272.815-.483-.04-.572-.282-.471-.616.381-1.262.525-2.577.795-3.86.252-1.196.663-2.368.764-3.599.016-.206.15-.404.24-.633z" data-color="1" class="icon1"></path><path d="M82.693 86.168c-.586-.288-.599-.712-.525-1.126.034-.191.076-.382.118-.572l.376-1.801c.299-1.45.599-2.899.927-4.342.015-.066.025-.137.036-.21.049-.341.116-.807.719-.913l.091-.016.023.089c.181.698.036 1.35-.104 1.981-.031.14-.062.279-.089.418a608.744 608.744 0 01-1.141 5.689 2.398 2.398 0 01-.186.503c-.036.079-.148.347-.148.347l-.097-.047z" data-color="1" class="icon1"></path><path d="M84.36 77.302c.213.825-.044 1.588-.194 2.355a608.537 608.537 0 01-1.141 5.688c-.049.238-.178.46-.288.733-.536-.263-.54-.63-.471-1.019.051-.288.12-.573.18-.859.408-1.952.798-3.908 1.24-5.852.085-.378.026-.933.674-1.046z" data-color="1" class="icon1"></path><path d="M76.103 118.854c-.503-.333-.41-.78-.335-1.139l.023-.111c.326-1.703.653-3.404 1.004-5.102.126-.607.289-1.206.452-1.804l.092-.341c.024-.091.091-.161.155-.229.028-.029.125-.146.125-.146l.064.018c.444.12.603.387.5.842-.417 1.845-.824 3.692-1.231 5.54l-.111.504c-.042.188-.08.376-.118.564-.061.302-.122.604-.198.903-.031.125-.109.23-.185.333-.033.045-.067.09-.097.139l-.054.086-.086-.057z" data-color="1" class="icon1"></path><path d="M76.158 118.771c-.493-.327-.345-.753-.269-1.148.326-1.702.653-3.403 1.004-5.1.149-.72.351-1.428.543-2.138.027-.1.135-.179.221-.288.409.11.516.337.429.722-.454 2.014-.898 4.03-1.343 6.045-.108.488-.191.981-.315 1.465-.039.156-.172.287-.27.442z" data-color="1" class="icon1"></path><path d="M113.556 99.593c-.486 0-.563-.321-.625-.579-.199-.812-.392-1.568-.584-2.325-.169-.664-.338-1.328-.502-1.993-.207-.83-.406-1.663-.605-2.5l-.278-1.161.075-.034c.154-.069.286-.104.4-.104.356 0 .441.329.474.452.274 1.06.532 2.124.79 3.188l.18.74c.016.063.02.132.024.2.005.081.009.157.036.211.321.639.457 1.332.587 2.002.071.36.141.721.24 1.074.047.167.024.344.003.515-.009.072-.019.144-.021.213l-.004.088-.19.013z" data-color="1" class="icon1"></path><path d="M111.077 91.093c.544-.245.672.034.736.282.338 1.305.651 2.616.969 3.926.035.142.007.309.07.433.484.964.535 2.042.819 3.058.061.216-.012.47-.022.697-.524.041-.56-.253-.634-.553-.35-1.423-.721-2.841-1.074-4.264-.295-1.187-.575-2.379-.864-3.579z" data-color="1" class="icon1"></path><path d="M78.979 102.368c0-.129-.006-.258-.012-.387-.014-.283-.027-.576.027-.856.099-.507.223-1.008.348-1.509.096-.386.192-.772.276-1.161.083-.382.151-.767.219-1.152.065-.367.13-.735.208-1.1l.09-.412c.125-.564.255-1.148.284-1.769l.002-.047.849-.633.011.186c.008.133.02.25.03.356.022.214.039.383.012.553a60.359 60.359 0 01-.523 2.953c-.182.861-.382 1.717-.583 2.574-.12.514-.24 1.029-.356 1.545-.014.061-.011.13-.009.203.002.075.004.15-.007.223-.057.346-.246.44-.748.532l-.118.021v-.12z" data-color="1" class="icon1"></path><path d="M79.079 102.368c0-.416-.063-.833.013-1.224.174-.896.431-1.776.624-2.668.162-.746.267-1.505.426-2.252.151-.714.34-1.419.376-2.197l.662-.494c.023.394.081.648.043.888a58.612 58.612 0 01-.521 2.948c-.292 1.377-.629 2.744-.939 4.117-.031.138.006.291-.017.432-.046.277-.17.359-.667.45z" data-color="1" class="icon1"></path><path d="M104.671 67.407c-.945-3.314-1.613-5.91-2.165-8.417l-.013-.056.36-.333.058.02c.16.042.232.061.262.129l.109.257c.122.284.248.578.33.882.242.892.461 1.791.68 2.689l.07.29c.267 1.084.527 2.17.788 3.256l.117.486c.073.302.069.616-.459.859l-.106.049-.031-.111z" data-color="1" class="icon1"></path><path d="M104.767 67.38c-.804-2.818-1.54-5.58-2.163-8.411l.274-.253c.099.034.187.038.202.073.154.372.331.74.436 1.127.268.987.507 1.983.75 2.977.305 1.246.604 2.494.904 3.742.066.271.072.526-.403.745z" data-color="1" class="icon1"></path><path d="M92.076 45.489c.043-.117.095-.232.147-.348.106-.236.206-.46.238-.693.134-.973.347-1.946.552-2.887.188-.862.382-1.752.515-2.638.024-.154.078-.298.146-.48.036-.096.176-.503.176-.503l.115.142c.526.651.416 1.225.319 1.731-.173.918-.356 1.835-.54 2.752-.155.775-.31 1.55-.459 2.327-.171.892-.546 1.361-1.488 1.858l-.23.122.509-1.383z" data-color="1" class="icon1"></path><path d="M93.887 38.145c.49.607.396 1.141.299 1.65-.32 1.695-.674 3.384-.999 5.079-.159.831-.483 1.285-1.437 1.789.166-.452.292-.796.42-1.139.132-.354.34-.697.39-1.062.257-1.861.788-3.668 1.067-5.524.034-.222.14-.433.26-.793z" data-color="1" class="icon1"></path><path d="M72.597 134.167s-.024-.172-.033-.218a.853.853 0 01-.021-.326c.108-.537.222-1.072.334-1.608.142-.671.284-1.341.416-2.015.173-.887.323-1.779.461-2.674.062-.406.157-.832.562-1.174l.057-.048.551.356-1.617 7.793-.71-.086z" data-color="1" class="icon1"></path><path d="M73.228 134.144l-.541-.067c-.019-.156-.072-.303-.046-.434.244-1.209.513-2.413.75-3.623.174-.889.324-1.783.462-2.678.064-.417.16-.803.528-1.113l.431.279c-.521 2.52-1.044 5.039-1.584 7.636z" data-color="1" class="icon1"></path><path d="M91.986 36.833a1.523 1.523 0 00-.065-.153c-.061-.13-.124-.266-.096-.4.3-1.443.616-2.882.931-4.322l.721-3.27.129.21c.365.593.461 1.131.321 1.799a239.587 239.587 0 00-.671 3.354l-.354 1.809c-.072.4-.153.854-.792 1.037l-.091.026-.033-.09z" data-color="1" class="icon1"></path><path d="M93.521 28.95c.387.63.428 1.152.308 1.727-.351 1.674-.668 3.355-1.002 5.033-.085.43-.101.906-.746 1.091-.057-.169-.189-.352-.158-.501.378-1.817.78-3.63 1.176-5.444.13-.596.263-1.19.422-1.906z" data-color="1" class="icon1"></path><path d="M97.777 44.649c-.72 0-1.012-.463-1.185-.867-.352-.819-.621-1.685-.881-2.522-.106-.339-.17-.623-.234-.906a9.788 9.788 0 00-.222-.865c-.196-.604-.083-1.148.39-1.877l.117-.18.063.205c.249.808.433 1.621.612 2.406.356 1.567.693 3.047 1.49 4.456l.081.143-.231.007z" data-color="1" class="icon1"></path><path d="M95.729 37.666c.731 2.377.896 4.734 2.111 6.882-.725.027-.99-.419-1.156-.806-.358-.834-.627-1.707-.897-2.575-.175-.56-.257-1.15-.437-1.709-.201-.621-.045-1.138.379-1.792z" data-color="1" class="icon1"></path><path d="M96.404 35.01c-.044-.044-.094-.086-.144-.128-.125-.104-.253-.211-.312-.359-.161-.409-.3-.862-.437-1.425a46.955 46.955 0 01-.52-2.404c-.059-.314-.083-.634-.108-.963l-.043-.514.598-.358.365 1.386c.353 1.339.699 2.65 1.032 3.964.037.145.006.297-.024.444a1.793 1.793 0 00-.032.185l-.255.188-.066.037-.054-.053z" data-color="1" class="icon1"></path><path d="M96.475 34.939c-.149-.149-.362-.273-.433-.453-.18-.457-.317-.934-.433-1.412a46.724 46.724 0 01-.519-2.398c-.084-.453-.097-.919-.144-1.406l.429-.257c.468 1.781.926 3.498 1.363 5.221.046.181-.037.395-.059.593l-.204.112z" data-color="1" class="icon1"></path><path d="M116.738 111.934c-.263 0-.441-.166-.532-.493l-.057-.205a140.61 140.61 0 01-.854-3.197c-.046-.182-.034-.374-.022-.561.005-.083.011-.167.011-.25v-.068l.063-.025a.929.929 0 01.324-.071c.309 0 .385.27.426.414l.239.825c.144.485.286.972.412 1.462.115.448.209.902.304 1.357l.144.682-.074.033a.955.955 0 01-.384.097z" data-color="1" class="icon1"></path><path d="M115.384 107.228c.449-.172.546.022.618.276.215.762.453 1.518.65 2.285.166.645.287 1.302.429 1.956-.443.2-.674.046-.778-.331-.312-1.131-.625-2.262-.91-3.4-.062-.244-.009-.518-.009-.786z" data-color="1" class="icon1"></path><path d="M100.525 142.781c.526-.393.939-.684 1.461-.315.481.34.648.897.427 1.488l-1.888-1.173z" data-color="1" class="icon1"></path><path d="M126.06 146.367c-.145-.552.079-.866.458-1.217l.977.126.212 1.041-.855.666-.792-.616z" data-color="1" class="icon1"></path><path d="M129.935 141.733l-.478.659c-.847.13-1.232-.029-1.348-.524-.091-.388.28-.935.714-1.053.536-.146.836.087 1.112.918z" data-color="1" class="icon1"></path><path d="M136.078 127.759l-17.987-13.066a2.236 2.236 0 00-2.64.009l-7.946 5.855a1.406 1.406 0 00.001 2.264l16.609 12.212a2.106 2.106 0 002.403.064l9.534-6.252a.66.66 0 00.026-1.086z" data-color="2" class="icon2"></path><path d="M121.53 122.95l.907 1.025-.273 1.006c-.784.53-1.299.546-1.743.069-.39-.419-.332-1.071.18-1.792.113-.031.254-.065.391-.11.136-.044.269-.098.538-.198z" data-color="1" class="icon1"></path><path d="M129.34 125.228c-.024.781-.014 1.455-.72 1.726-.616.237-1.053-.179-1.435-.567-.136-1.235-.096-1.312 1.002-1.792l1.153.633z" data-color="1" class="icon1"></path><path d="M112.632 123.495c.396-1.213.725-1.504 1.416-1.316.682.186 1.044.744.915 1.411-.12.621-.699.94-1.652.882-.113-.124-.268-.263-.384-.429-.118-.166-.196-.359-.295-.548z" data-color="1" class="icon1"></path><path d="M105.311 150.04l-11.593-.783a2.01 2.01 0 00-1.967 1.176l-8.948 19.752a.914.914 0 00.731 1.285l11.141 1.238a1.742 1.742 0 001.776-1.005l9.464-20.648a.718.718 0 00-.604-1.015z" data-color="3" class="icon3"></path><path d="M123.362 123.743c.027 1.551-.628 2.395-1.988 2.617-.829.135-1.819-.583-2.121-1.547-.318-1.018.325-2.142 1.126-2.433.957-.346 1.881-.478 2.983 1.363zm-1.832-.793c-.269.1-.402.155-.538.199-.138.045-.279.079-.391.11-.511.722-.57 1.373-.18 1.792.444.477.959.46 1.743-.069l.273-1.006-.907-1.026z" data-color="4" class="aLgOaV3zRcolors-3"></path><path d="M129.322 123.995c.463.584 1.088 1.079.981 1.915-.072.561-.291 1.077-.75 1.459-.569.473-1.273.64-1.909.4-.57-.215-1.028-.726-1.495-1.076v-1.632c.877-1.313 1.772-1.629 3.173-1.066zm.018 1.233l-1.154-.633c-1.097.48-1.137.557-1.002 1.792.383.388.819.804 1.435.567.707-.271.697-.945.721-1.726z" data-color="4" class="aLgOaV3zRcolors-3"></path><path d="M113.787 125.483c-1.104-.211-1.891-.777-2.035-1.929-.124-.991.464-1.656 1.207-2.185 1.037-.155 1.962.002 2.687.814.506 1.932-.013 2.846-1.859 3.3zm-1.155-1.988c.099.188.177.382.294.549.116.166.271.305.384.429.954.058 1.532-.262 1.652-.882.129-.667-.233-1.226-.915-1.411-.689-.188-1.019.103-1.415 1.315z" data-color="4" class="aLgOaV3zRcolors-3"></path><path d="M96.236 139.908l6.301-13.18a1.54 1.54 0 012.265-.604l16.575 11.425a2.143 2.143 0 01.748 2.622l-6.03 13.826a2.425 2.425 0 01-3.329 1.189l-5.471-2.802.947-3.6-12.006-8.876z" data-color="2" class="icon2"></path><path d="M109.903 147.686l.605 1.2-.652.945-.979-.045.069-1.051-.511-.694c.33-.56.818-.554 1.468-.355z" data-color="1" class="icon1"></path><path d="M116.165 137.037c1.273.978 1.53 1.947.855 3.14-.424.75-1.682 1.213-2.453.904-.801-.322-1.553-1.514-1.388-2.253.232-1.035.815-2.073 2.986-1.791zm-.585 3.229l.687-.575c.301-1.152.12-1.493-.963-1.855-1.281.458-1.479.971-.756 2.146l1.032.284z" data-color="4" class="aLgOaV3zRcolors-3"></path><path d="M109.025 132.76c.587 2.122.234 2.876-1.577 3.426-1.83-.353-1.944-.931-2.141-1.849-.162-.759.308-1.747.959-2.14.674-.408 1.656-.216 2.759.563zm-.775 2.124c.32-1.012.32-1.012-.17-1.817l-.828-.241c-1.055.646-1.105.752-.891 1.796.751.701 1.01.741 1.889.262z" data-color="4" class="aLgOaV3zRcolors-3"></path><path d="M115.58 140.266l-1.031-.284c-.724-1.174-.525-1.687.756-2.146 1.083.362 1.264.703.963 1.855l-.688.575z" data-color="1" class="icon1"></path><path d="M108.25 134.884c-.879.479-1.137.439-1.889-.262-.214-1.043-.164-1.15.891-1.796l.828.241c.49.805.49.805.17 1.817z" data-color="1" class="icon1"></path><path d="M99.905 142.531l1.706-.568 1.326.379.189 1.326-.568.758-2.653-1.895z" data-color="1" class="icon1"></path><path d="M127.521 142.243v-1.313c1.167-1.104 1.581-1.127 2.896-.187l.183 1.059c-.536 1.59-2.062 1.902-3.079.441zm2.414-.51c-.276-.831-.576-1.064-1.112-.918-.434.118-.805.665-.714 1.053.116.495.501.654 1.348.524l.478-.659z" data-color="4" class="aLgOaV3zRcolors-3"></path><path d="M126.175 147.381c-.768-.62-1.179-1.312-.69-2.168.3-.525.697-.956 1.973-.738.275.347.817.515.901 1.043.051.318.064.683-.043.977-.316.869-.834 1.054-2.141.886zm-.115-1.014l.792.616.855-.666-.212-1.041a348.91 348.91 0 01-.977-.126c-.379.351-.603.664-.458 1.217z" data-color="4" class="aLgOaV3zRcolors-3"></path><path d="M102.038 151.696c.669.663 1.234 1.336.936 2.582l-1.185 1.39-2.108-.238c-.546-.968-1.169-1.839-.509-2.927.68-1.121 1.707-1.099 2.866-.807zm-1.488.762l-.66.597v1.044l.488.496h1.107c.567-.481.721-.977.412-1.613-.275-.564-.722-.631-1.347-.524z" data-color="4" class="aLgOaV3zRcolors-3"></path><path d="M93.202 152.887l.326-1.451c1.579-1.235 2.752-1.178 3.676.141.577.824.31 2.275-.573 2.719-1.26.634-2.537.803-3.429-1.409zm1.453.811c1.455.102 1.515.058 1.927-1.331l-.697-.821h-1.108l-.646.948.524 1.204z" data-color="4" class="aLgOaV3zRcolors-3"></path><path d="M96.256 159.172c1.515-1.84 2.745-1.835 4.095.014.126 1.668-.646 2.867-1.929 2.787-1.278-.08-2.521-.624-2.166-2.801zm1.016.086c-.124.981.02 1.429.517 1.685.494.255.941.092 1.675-.668l-.358-1.307-1.016-.31-.818.6z" data-color="4" class="aLgOaV3zRcolors-3"></path><path d="M91.586 163.939c1.233 1.769-.133 3.669-2.238 3.404-1.42-.901-1.873-2.092-1.193-3.138.777-1.198 1.96-1.289 3.431-.266zm-.574 2.016v-1.218c-.774-.632-1.243-.725-1.769-.381-.459.3-.516.712-.199 1.622l.75.518c.226-.074.425-.123.609-.204.185-.081.357-.195.609-.337z" data-color="4" class="aLgOaV3zRcolors-3"></path><path d="M93.563 157.016c1.476 1.238 1.558 1.78.546 3.508-.658.607-1.445.435-2.33.423l-1.193-1.301c-.283-2.083 1.308-3.064 2.977-2.63zm.31 2.066c-.449-1.308-.515-1.359-1.548-1.261-1.056.733-1.102.994-.316 2.151l1.101.223.763-1.113z" data-color="4" class="aLgOaV3zRcolors-3"></path><path d="M97.478 165.111c.156.781.316 1.488-.133 2.194-.479.752-1.237 1.021-2.119.879-1.148-.184-1.549-.966-1.838-2.072l.665-1.411 1.432-.587c.84-.01 1.371.532 1.993.997zm-1.7-.069l-1.004.267c-.303.574-.582 1.121-.133 1.695l1.057.468.985-.77c.212-.875-.185-1.299-.905-1.66z" data-color="4" class="aLgOaV3zRcolors-3"></path><path d="M100.55 152.458c.626-.107 1.073-.04 1.347.524.309.635.155 1.132-.412 1.613h-1.107l-.488-.496v-1.044l.66-.597z" data-color="1" class="icon1"></path><path d="M94.655 153.698l-.525-1.204.646-.948h1.108l.697.821c-.411 1.389-.471 1.432-1.926 1.331z" data-color="1" class="icon1"></path><path d="M97.272 159.258l.818-.601 1.016.31.358 1.307c-.735.76-1.181.923-1.675.668-.496-.256-.641-.703-.517-1.684z" data-color="1" class="icon1"></path><path d="M91.012 165.955c-.252.142-.423.256-.609.338-.184.081-.382.13-.609.204l-.75-.518c-.317-.91-.261-1.322.199-1.622.526-.344.995-.251 1.769.381v1.217z" data-color="1" class="icon1"></path><path d="M93.873 159.082l-.763 1.113-1.101-.223c-.787-1.157-.741-1.418.316-2.151 1.032-.098 1.098-.048 1.548 1.261z" data-color="1" class="icon1"></path><path d="M95.778 165.042c.719.36 1.117.785.905 1.66l-.985.77-1.057-.468c-.449-.574-.17-1.121.133-1.695l1.004-.267z" data-color="1" class="icon1"></path><path d="M74.706 138.49l13.427 8.951c.667.445.908 1.312.564 2.037l-8.895 18.778a1.494 1.494 0 01-2.176.606l-13.628-9.032a1.672 1.672 0 01-.574-2.136l9.248-18.66a1.401 1.401 0 012.034-.544z" data-color="3" class="icon3"></path><path d="M76.372 157.979l1.625.26c1.154 1.109 1.326 2.227.563 3.284-.556.77-1.768.882-2.998.277-.952-.932-.872-1.986-.36-3.124l1.17-.697zm.999 3.228c.548-.483.852-1.009.58-1.712-.634-.517-1.294-.668-1.712-.367l-.38.545v1.024l.686.51h.826z" data-color="4" class="aLgOaV3zRcolors-3"></path><path d="M82.126 148.556c.385.051.825.071 1.244.173.939.23 1.518.952 1.552 1.894.029.806-.347 1.563-1.34 1.96-.893.356-1.625.056-2.311-.413-.553-.378-.727-1.897-.344-2.45.167-.24.371-.458.58-.665.165-.163.362-.295.619-.499zm-.4 2.558c.898.969 1.311.961 2.171-.05v-.84l-.546-.675-1.118.06c-.523.444-.599.92-.507 1.505z" data-color="4" class="aLgOaV3zRcolors-3"></path><path d="M68.394 153.069c1.156-.167 1.989.253 2.593 1.406v1.335c-.784 1.065-.784 1.065-2.15 1.408-.966-.257-1.829-.778-1.976-1.847-.148-1.083.524-1.826 1.533-2.302zm1.634 2.484c-.004-1.036-.408-1.575-1.15-1.573-.665.002-1.044.585-1.003 1.615l.561.621h1.044l.548-.663z" data-color="4" class="aLgOaV3zRcolors-3"></path><path d="M72.693 145.373l.799-1.27.939-.483c1.066-.172 1.893.245 2.412 1.331.32 1.683-.53 2.649-1.747 2.798-.673.082-1.228-.265-1.762-.69-.587-.468-.365-1.152-.641-1.686zm2.937-.628c-1.097-.359-1.221-.318-1.924.573-.135.728.19 1.187.837 1.46 1.062.019 1.14-.041 1.537-1.207l-.45-.826z" data-color="4" class="aLgOaV3zRcolors-3"></path><path d="M78.129 152.549c-.505 1.648-1.637 2.341-2.919 1.891-1.198-.42-1.679-1.962-.834-3.321.26-.155.546-.378.87-.503.324-.124.685-.149 1.03-.218 1.354.611 1.354.611 1.853 2.151zm-3.282-.42v.9l.986.694c1.191-.319 1.381-.597 1.231-1.795l-.581-.532c-.731-.106-1.29.042-1.636.733z" data-color="4" class="aLgOaV3zRcolors-3"></path><path d="M77.371 161.207h-.827l-.686-.51v-1.024l.38-.545c.418-.301 1.078-.149 1.712.367.272.703-.032 1.229-.579 1.712z" data-color="1" class="icon1"></path><path d="M81.726 151.114c-.092-.585-.016-1.061.507-1.505l1.118-.06.546.675v.84c-.86 1.011-1.273 1.019-2.171.05z" data-color="1" class="icon1"></path><path d="M70.028 155.553l-.547.663h-1.044l-.561-.621c-.042-1.03.338-1.613 1.003-1.615.741-.002 1.146.537 1.149 1.573z" data-color="1" class="icon1"></path><path d="M75.63 144.745l.451.826c-.397 1.166-.476 1.226-1.537 1.207-.647-.273-.972-.732-.837-1.46.701-.891.825-.932 1.923-.573z" data-color="1" class="icon1"></path><path d="M60.183 159.229c.287.035.343-.165.387-.379.205-1.002.756-1.842 1.239-2.721.41-.747.724-1.547 1.092-2.317.793-1.658 1.605-3.308 2.387-4.971.601-1.278 1.154-2.578 1.756-3.855.662-1.405 1.364-2.791 2.033-4.193.351-.736.663-1.49 1.004-2.231.494-1.073.998-2.141 1.489-3.194-.149-.92.149-1.765.311-2.626.254-1.355.516-2.709.776-4.068-1.065-.323-1.434-1.092-1.357-2.002.126-1.498.341-2.992.597-4.474.225-1.301.545-2.587.848-3.873.148-.627.264-1.269.79-1.746.23-.208.358-.529.59-.888l1.218-.366c.38-.823.368-1.834.638-2.829l-.769-.285c-.601-.928-.813-1.961-.537-3.124.265-1.119.429-2.262.659-3.39.236-1.154.498-2.303.751-3.454.038-.173.108-.341.132-.515.185-1.336.953-2.156 2.331-2.601l.695-3.043-.915-.318c-.037-.114-.054-.234-.111-.33-.635-1.079-.482-2.183-.203-3.332.234-.962.299-1.964.486-2.94.126-.658.336-1.3.504-1.95.044-.171.086-.345.106-.52.148-1.291.603-2.461 1.488-3.417.257-.278.693-.392 1.221-.674.072-.324.191-.834.296-1.347.1-.486.185-.974.28-1.48l-1.05-.695c-.39-1.195-.348-2.293-.104-3.415.225-1.033.355-2.086.548-3.126.074-.398.21-.784.308-1.178.233-.938.315-1.905.645-2.828.354-.991.888-1.908 2.111-2.147.572-.943.569-2.025.767-3.094-1.039-.282-1.404-1.037-1.362-2.011a16.49 16.49 0 01.244-2.194c.323-1.799.664-3.595 1.044-5.382.147-.69.359-1.38.646-2.024.399-.895 1.049-1.565 2.064-1.718l.638-2.96c-.742-.208-1.159-.798-1.288-1.495-.115-.617-.066-1.286.024-1.916.216-1.512.467-3.021.765-4.52.23-1.155.463-2.324.863-3.426.364-1 .959-1.913 2.252-2.061a47.974 47.974 0 012.093-8.044c.329-.04.561-.082.793-.091.204-.008.41.021.63.034l.608.729 1.395 5.212c.54.268 1.02.485 1.48.739.677.374 1.085.903 1.252 1.715.256 1.241.689 2.445 1.019 3.672.372 1.386.668 2.794 1.081 4.166s-.137 2.393-1.06 3.448c-.232.825.234 1.62.496 2.482l1.532.54c.808.81 1.293 1.798 1.54 2.978.313 1.493.82 2.945 1.233 4.418.23.822.518 1.639.639 2.478.138.956-.065 1.866-.728 2.653-.308.366-.48.848-.656 1.17.195.684.735 1.106.378 1.838l1.172.32.059-.1c.496.462 1.057.874 1.466 1.403.31.401.484.936.619 1.438.619 2.303 1.201 4.615 1.803 6.923.198.758.212 1.547-.041 2.251-.22.612-.716 1.124-1.161 1.785.426.633.12 1.621.684 2.38.976.029 1.779.407 2.281 1.205.304.483.486 1.062.635 1.62.654 2.449 1.318 4.897 1.893 7.365.283 1.213-.078 2.311-1.076 3.138-.044.036-.071.093-.163.217l.607 2.36c.591.286 1.11.499 1.586.784.265.159.506.407.674.67.644 1.007.955 2.142 1.225 3.296.322 1.376.685 2.742 1.054 4.106.279 1.031.457 2.069.325 3.285l-1.182 2.012c.199.826.355 1.577.572 2.31.069.234.266.467.466.619a299.252 299.252 0 004.159 3.104c.426.313.886.582 1.325.877 1.191.801 2.397 1.581 3.566 2.414 1.531 1.09 3.019 2.24 4.549 3.332 1.173.837 2.389 1.614 3.572 2.438.6.418 1.169.88 1.749 1.326.164.126.298.333.48.387.912.269 1.371.944 1.68 1.772v.178c-.364.806-.729 1.611-1.092 2.417-.302.672-.586 1.352-.908 2.014-1.107 2.275-2.266 4.525-3.33 6.82-1.138 2.454-2.3 4.897-3.433 7.352-.641 1.389-1.328 2.639-2.794 3.279-.027.012-.056.022-.079.04-1.247.924-2.493 1.851-3.742 2.773-1.636 1.208-3.271 2.417-4.914 3.615a104.37 104.37 0 01-2.596 1.828c-.615.42-1.275.481-1.922.082a135.202 135.202 0 01-3.099-1.974c-1.528-1.003-3.043-2.025-4.568-3.032-.14-.093-.312-.138-.572-.249l-9.384 20.208-.679.441h-1.782c-.269-.073-.536-.197-.808-.209-1.113-.053-2.23-.052-3.343-.107-1.354-.067-2.71-.266-4.06-.229-1.174.032-2.337-.278-3.508-.053-.11.021-.232-.031-.35-.044-.88-.097-1.759-.226-2.642-.277-.522-.03-.973-.149-1.4-.458-1.388-1.003-2.794-1.981-4.186-2.978-.548-.393-1.065-.831-1.62-1.213-1.502-1.033-3.036-2.019-4.521-3.075-1.629-1.158-3.162-2.452-4.88-3.488-.149-.09-.267-.231-.41-.333-1.003-.718-2.008-1.432-3.013-2.148.005-.236.005-.473.005-.711zm18.247-35.514c-.16.815-.311 1.631-.44 2.451-.137.869-.468 1.632-.857 2.428a2059 2059 0 00-2.023 1.209l-.9 4.421c.214.044.354.091.496.098 1.497.067 2.993.132 4.49.188.527.02 1.057-.015 1.582.021 1.374.094 2.745.234 4.12.317 1.448.088 2.899.128 4.348.198.171.008.367.035.505.125.681.445 1.349.909 2.015 1.375.888.621 1.771 1.25 2.685 1.896.62-1.301 1.205-2.517 1.778-3.737.462-.984.896-1.981 1.37-2.958.448-.922.96-1.814 1.394-2.742.819-1.755 1.582-3.536 2.407-5.289.323-.687.612-1.483 1.155-1.954 1.257-1.09 2.65-2.027 4.008-2.998.791-.565 1.645-1.043 2.427-1.619 1.423-1.048 2.81-2.145 4.221-3.21.421-.317.88-.584 1.309-.892.331-.237.642-.501 1.016-.795l-.526-2.056-.534.155c-1.108-.628-1.857-1.469-2.072-2.752-.096-.573-.349-1.119-.523-1.68-.174-.562-.356-1.122-.504-1.691a48.286 48.286 0 01-.613-2.572c-.166-.828-.584-1.62-.358-2.51.108-.428.092-.903.272-1.292.189-.408.546-.738.868-1.153-.567-.785-.211-1.927-1.039-2.702-.567.05-1.13-.203-1.424-.662-.455-.713-.789-1.515-1.088-2.312-.276-.737-.438-1.517-.653-2.277-.199-.703-.428-1.398-.596-2.107-.264-1.116-.488-2.241-.729-3.363.298-.908.26-1.958 1.211-2.542l-.718-2.931c-1.371-.046-2.036-.538-2.477-1.796-.068-.194-.109-.397-.163-.596-.344-1.276-.699-2.55-1.03-3.829-.31-1.197-.707-2.387-.859-3.606-.149-1.193-.275-2.487.992-3.372-.281-.938-.387-1.934-.772-2.83-1.275-.016-1.89-.818-2.322-1.754-.305-.661-.464-1.393-.65-2.103-.373-1.424-.635-2.883-1.099-4.275-.474-1.42-.648-2.809-.184-4.487l.77-.648c-.222-.974-.439-1.917-.667-2.908l-.539.045c-1.128-.428-1.662-1.224-1.954-2.245-.166-.583-.419-1.14-.645-1.741-.108.101-.178.134-.186.179-.188.946-.403 1.889-.545 2.842-.201 1.352-.809 2.371-2.127 2.892-.244.096-.465.249-.786.425l-.343 2.329c.135.126.197.185.261.243.796.721 1.364 1.541 1.21 2.692-.094.7-.122 1.413-.263 2.103-.425 2.069-.922 4.123-1.329 6.196-.246 1.249-.956 2.039-2.095 2.508-.187.077-.373.157-.53.223-.097.433-.189.804-.262 1.179-.078.398-.137.799-.203 1.19 1.218.95 1.636 2.158 1.406 3.574-.165 1.016-.416 2.017-.62 3.027-.082.405-.145.814-.211 1.223-.094.582-.173 1.167-.274 1.748-.11.638-.237 1.273-.399 2.134-.417 1.076-1.423 1.842-2.622 2.263-.542.853-.465 1.707-.449 2.504 1.157 1.12 1.734 2.338 1.298 3.931-.311 1.134-.528 2.295-.754 3.451-.242 1.24-.402 2.498-.678 3.73-.239 1.066-.701 2.016-1.864 2.4-.248.082-.475.23-.761.372-.336.736-.469 1.539-.479 2.358.313.452.559.942.928 1.307.508.503.592 1.074.49 1.712-.215 1.337-.427 2.676-.679 4.006-.286 1.51-.601 3.014-.929 4.515-.161.736-.467 1.401-1.173 1.795-.403.225-.799.461-1.384.799-.404.556-.42 1.409-.486 2.243.208.222.414.397.567.611.481.673.823 1.36.787 2.26-.031.761-.271 1.446-.411 2.167-.191.977-.394 1.952-.586 2.928m-6.042 12.207l-11.107 23.486c.279.258.472.477.703.644.715.516 1.456.996 2.165 1.521 1.226.907 2.389 1.908 3.666 2.734 1.082.7 2.083 1.502 3.139 2.23.313.216.683.348.993.568.83.588 1.643 1.198 2.459 1.806.963.718 1.905 1.466 2.888 2.156.712.499 1.477.923 2.203 1.372.118-.125.174-.161.196-.211.48-1.094.859-2.245 1.458-3.269.737-1.259 1.217-2.63 1.922-3.904.92-1.662 1.657-3.425 2.457-5.152.507-1.095.983-2.205 1.478-3.306.302-.672.602-1.345.921-2.009.548-1.139 1.117-2.267 1.663-3.407.204-.425.361-.872.552-1.303.272-.613.556-1.22.852-1.866-.322-.293-.546-.589-.844-.751-1.525-.834-2.89-1.895-4.288-2.913-.5-.364-1.071-.628-1.576-.985-2.311-1.636-4.6-3.301-6.916-4.93-1.244-.875-2.524-1.699-3.735-2.511h-1.249zm52.716 2.537l-22.142-15.778c-2.616 5.525-5.154 10.926-7.724 16.341l4.418 3.085c1.235-.867 2.419-1.007 3.557.211l.383 1.262-.26.977 4.069 2.982c1.755-1.794 3.699-.732 4.024 1.159-.17.684-.301 1.375-1.021 1.769-.685.375-1.407.357-2.172.284l-1.085 2.238c.564.349 1.095.653 1.6.995 1.042.706 2.061 1.447 3.108 2.147.98.654 1.978 1.282 2.98 1.902.234.145.516.213.818.333l9.447-19.907zm-21.31-16.464c.117.151.158.238.226.287 1.536 1.12 3.049 2.273 4.621 3.34 1.2.814 2.372 1.663 3.539 2.521.898.661 1.83 1.276 2.743 1.917a842.052 842.052 0 014.269 3.015c1.288.917 2.568 1.847 3.853 2.769.215.154.435.301.654.449l1.895 1.281c.329-.197.641-.357.926-.558a231.768 231.768 0 003.09-2.218c1.426-1.044 2.838-2.108 4.266-3.15 1.041-.759 2.077-1.527 3.156-2.229.498-.324.922-.682 1.275-1.136-.9-.692-1.755-1.36-2.622-2.013a66.187 66.187 0 00-2.002-1.452c-.892-.619-1.805-1.208-2.696-1.828-.617-.429-1.213-.889-1.817-1.337-.296-.219-.585-.446-.885-.66-1.057-.754-2.119-1.502-3.177-2.255-.837-.595-1.668-1.197-2.507-1.79a482.172 482.172 0 00-2.644-1.854c-.383-.267-.775-.522-1.158-.791-.783-.549-1.562-1.104-2.275-1.608-1.509 1.081-2.926 2.089-4.335 3.107-1.424 1.03-2.878 2.023-4.249 3.12-1.341 1.074-2.861 1.913-4.146 3.073zm-23.076 50.797c1.263.069 2.497.139 3.732.202.473.024.948.019 1.421.046 1.741.1 3.481.212 5.222.313.944.055 1.89.092 2.834.147.85.05 1.699.113 2.595.173.41-.898.8-1.779 1.214-2.649.493-1.037 1.02-2.059 1.507-3.099.562-1.199 1.093-2.411 1.643-3.616.207-.453.434-.896.638-1.35.422-.941.816-1.894 1.255-2.826.648-1.376 1.335-2.735 1.989-4.109a571.676 571.676 0 002.633-5.604c.193-.416.321-.863.52-1.407-5.357-.418-10.582-.523-15.831-.84-.274.588-.529 1.145-.793 1.697-.431.9-.869 1.797-1.302 2.696-.511 1.058-1.031 2.112-1.528 3.177-.446.954-.853 1.927-1.301 2.88-.55 1.17-1.121 2.331-1.691 3.491-.166.338-.386.649-.539.992-.634 1.42-1.224 2.859-1.882 4.267-.618 1.323-1.331 2.602-1.938 3.93-.195.429-.639.813-.398 1.489zm-5.97-37.633l-.111.196c.165.149.317.314.496.442.361.259.742.49 1.104.748 1.242.886 2.471 1.789 3.72 2.665 1.1.771 2.226 1.505 3.326 2.276.549.385 1.049.842 1.602 1.221.483.332 1.041.558 1.511.904 1.561 1.151 3.116 2.309 4.774 3.318.315.192.702.342 1.066.366 1.642.109 3.287.167 4.931.242 2.567.117 5.135.231 7.702.351.374.017.746.057 1.285.099-.201-.285-.268-.452-.391-.541-.571-.415-1.157-.808-1.737-1.209-1.817-1.255-3.638-2.504-5.449-3.766-1.395-.972-2.757-1.993-4.181-2.921-.373-.243-.661-.558-1.013-.802a134.538 134.538 0 00-3.516-2.379c-.359-.233-.78-.472-1.19-.506-1.371-.116-2.75-.147-4.127-.197-.593-.022-1.188.016-1.78-.019-1.766-.103-3.53-.231-5.296-.342-.909-.055-1.817-.097-2.726-.146zm63.349-5.215c-4.077 2.665-7.864 5.716-11.898 8.389l-9.128 19.249c.368-.119.577-.136.723-.241a562.02 562.02 0 004.697-3.414c.35-.257.659-.571 1.016-.816.822-.564 1.727-1.028 2.476-1.674.69-.595 1.409-1.12 2.166-1.617.684-.448 1.365-.93 1.703-1.735.388-.924.756-1.857 1.181-2.763.858-1.831 1.754-3.644 2.625-5.468.785-1.643 1.561-3.29 2.334-4.939.199-.425.322-.896.572-1.286.72-1.122 1.191-2.345 1.533-3.685zm-34.658-72.25l-1.583-6.072a199.906 199.906 0 01-1.287.592c.378 1.947.898 3.786 1.447 5.591l1.423-.111zm6.9 26.274l-1.319.499 1.487 5.861 1.434-.51c-.736-1.926-.985-3.936-1.602-5.85zM91.47 37.683l-1.188 5.837c.333.038.564.049.788.096.21.043.411.125.624.192.37-2.037.86-3.995 1.142-5.991l-1.366-.134zm-6.261 38.925c.062-.231.098-.341.121-.454.262-1.329.479-2.669.802-3.984a4.525 4.525 0 00.103-1.63l-1.167-.148-1.236 5.952 1.377.264zm-6.407 32.682c.262-2.01.985-3.929 1.112-5.994h-1.269c-.606 1.916-.892 3.867-1.22 5.849l1.377.145zm3.126-16.28c.545-2.004.874-4.027 1.29-6.109h-1.333c-.686 1.81-.802 3.738-1.167 5.588l1.21.521zm32.792 13.405l1.444-.393c-.297-1.057-.588-2.038-.847-3.028-.255-.971-.402-1.974-.81-2.925l-1.165.707 1.378 5.639zM96.247 36.06c.685 1.933.873 3.933 1.667 5.792l1.205-.517-1.537-5.782c-.368.113-.651.193-.93.289-.106.037-.201.107-.405.218zm11.398 37.699l-1.537-5.867-1.271.405c.261 1.063.527 2.02.725 2.991.196.961.412 1.906.806 2.789l1.277-.318zM81.323 84.186c-.453-.083-.601.203-.683.483-.207.703-.374 1.417-.554 2.127-.224.883-.485 1.759-.659 2.652a99.357 99.357 0 00-.704 4.17c-.085.559.04 1.087.485 1.503.321-.174.334-.425.35-.695.046-.759.036-1.532.186-2.272.519-2.563 1.098-5.113 1.648-7.669.016-.075-.037-.167-.069-.299zm6.965-30.067c-.36 1.664-.719 3.271-1.045 4.884-.06.296.019.619.037.984l1.213.065 1.128-5.933h-1.333zm-13.012 71.494c.165-.42.335-.759.433-1.117.381-1.386.349-2.86.888-4.217.055-.138-.035-.333-.066-.567l-1.155-.071c-.633 1.818-.928 3.63-1.186 5.462l1.086.51zm-.749-8.721c-.436.246-.623.555-.71 1.007-.229 1.179-.565 2.337-.796 3.516a95.003 95.003 0 00-.737 4.342c-.107.721-.173 1.47.533 2.099.079-.239.231-.451.185-.604-.246-.814.021-1.572.182-2.345.3-1.434.552-2.879.912-4.298.222-.874.201-1.805.665-2.63.189-.336.109-.751-.234-1.087zm35.977-23.72c-.022-.442-.007-.763-.282-1.065a2.042 2.042 0 01-.448-.822c-.277-1.053-.5-2.121-.762-3.178a335.56 335.56 0 00-1.07-4.202c-.13-.499-.298-.988-.478-1.579-.325.317-.464.564-.395.917.153.782.253 1.577.45 2.347.45 1.766 1.007 3.507 1.395 5.286.181.828.67 1.427 1.074 2.101.062.104.285.113.516.195zM90.748 35.034c-.548.736-.858 1.572-1.034 2.466-.091.46-.17.923-.253 1.384-.318 1.761-.834 3.487-.976 5.279-.049.618-.182 1.294.536 1.738.074-.13.172-.225.182-.329.101-1.075.143-2.138.386-3.218.247-1.099.472-2.228.669-3.35.199-1.128.491-2.24.738-3.36.05-.23.099-.473-.248-.61zm24.016 74.36c-.078-.376-.087-.578-.163-.753-.152-.351-.391-.672-.503-1.033a52.203 52.203 0 01-.78-2.797c-.237-.942-.434-1.893-.648-2.84-.206-.912-.397-1.828-.629-2.734-.068-.264-.255-.498-.471-.9-.122.328-.22.475-.226.626-.037.974.16 1.909.428 2.847.527 1.842.998 3.7 1.473 5.556.208.808.627 1.443 1.519 2.028zm-8.444-32.365c-.119-.34-.229-.685-.362-1.02-.075-.19-.225-.355-.279-.548-.433-1.559-.866-3.117-1.268-4.684-.326-1.274-.602-2.56-.917-3.837-.048-.195-.183-.368-.278-.551l-.215.048c-.037.276-.084.55-.11.827-.107 1.146.399 2.18.638 3.258.355 1.6.89 3.16 1.267 4.756.202.852.719 1.365 1.524 1.751zM85.685 62.265l.234-.018c.033-.272.143-.563.08-.81-.099-.39-.08-.731.019-1.12.245-.965.422-1.948.628-2.924.309-1.462.636-2.921.921-4.388.092-.474.073-.969.105-1.455a59.213 59.213 0 00-.22-.069l-.742 1.21c-.017.7.002 1.386-.443 1.969-.064.084-.064.221-.083.336-.228 1.329-.467 2.657-.676 3.99-.135.864-.226 1.735-.328 2.53l.505.749zm27.473 30.167c.62-.412.755-.991.638-1.561-.277-1.349-.63-2.682-.974-4.016-.205-.797-.458-1.582-.677-2.376-.17-.619-.299-1.251-.485-1.865-.194-.641-.589-1.131-1.392-1.54.132.464.189.764.303 1.04.144.35.39.666.495 1.025.247.841.361 1.726.666 2.542.436 1.167.725 2.363.971 3.575.169.833.487 1.644.297 2.526-.037.175.089.386.158.65zM84.278 67.77c-.435.573-.693 1.134-.826 1.734a113.696 113.696 0 00-.954 4.658 46.188 46.188 0 00-.463 3.499c-.042.422-.01.897.602 1.175.161-3.642 1.362-7.031 1.855-10.697l-.214-.369zm20.444-7.569c.8-1.354.561-2.334.282-3.272-.528-1.782-1.043-3.571-1.448-5.384-.174-.78-.542-1.429-.892-2.106-.152-.295-.421-.451-.906-.408.125.298.184.551.322.75.361.52.547 1.079.679 1.706.295 1.403.69 2.786 1.082 4.167.33 1.16.812 2.281.674 3.535-.029.263.105.545.207 1.012zM82.237 95.817c.955-.69 1.374-1.641 1.506-2.753.081-.682.163-1.366.293-2.04.289-1.498.625-2.987.907-4.486.136-.722.143-1.446-.568-2.157-.387 3.965-1.052 7.736-2.138 11.436zm19.659-35.139c0-.159.053-.328-.008-.426-.572-.921-.754-1.965-1.008-2.994-.528-2.146-1.102-4.28-1.669-6.416-.074-.279-.218-.539-.33-.808-.347.678-.328 1.325-.192 1.954.222 1.029.489 2.049.765 3.066.409 1.504.844 3.002 1.296 4.6.675.84.675.84 1.146 1.024zm16.262 46.995c-.147-.78-.275-1.584-.456-2.376-.116-.509-.332-.994-.464-1.5-.423-1.624-.812-3.257-1.246-4.878-.201-.751-.62-1.344-1.622-1.658.159.397.24.626.34.846.266.586.604 1.148.798 1.756.321 1.007.575 2.037.813 3.068.389 1.687 1.112 3.31 1.013 5.097-.008.136.108.279.2.501l.624-.856zm-42.042 3.781c.072-.159.12-.214.116-.265-.138-1.859.581-3.596.786-5.408.117-1.037.517-2.039.721-3.07.128-.645.413-1.289.221-2.031-.533.252-.798.634-.9 1.154-.226 1.149-.468 2.295-.688 3.445-.286 1.496-.614 2.989-.802 4.498-.066.531-.133 1.235.546 1.677zm29.903-46.304c.359.878.77 1.739 1.063 2.639.29.891.455 1.823.686 2.734.239.94.389 1.92.766 2.802.384.9.028 1.909.499 2.892.635-.769.635-1.488.4-2.255a87.632 87.632 0 01-.718-2.461c-.472-1.727-.94-3.456-1.392-5.189-.164-.631-.591-.983-1.304-1.162zm-8.507-32.44c.089.33.083.638.233.806.665.749.745 1.72 1.017 2.605.317 1.031.47 2.112.755 3.155.331 1.209.853 2.369.729 3.674-.029.302.124.621.206.992.648-.932.688-1.109.468-2.02-.351-1.454-.7-2.908-1.062-4.36-.269-1.081-.493-2.18-.861-3.227-.23-.658-.504-1.404-1.485-1.625zM75.839 128.3c.191-.144.462-.251.57-.449.282-.513.569-1.045.713-1.606.232-.907.354-1.842.517-2.766.271-1.534.514-3.074.815-4.602.146-.739-.043-1.321-.556-1.857-.218.599-.205.598-.142 1.199.031.293.045.6-.009.886-.184.98-.415 1.952-.6 2.932-.17.897-.221 1.826-.477 2.696-.262.891-.237 1.87-.806 2.678-.147.208-.365.504-.025.889zM87.61 68.131l-.207.119c.023.315.044.63.069.944.021.263.104.534.061.785-.129.751-.311 1.493-.466 2.24-.281 1.356-.646 2.702-.802 4.072a5.766 5.766 0 01-.636 2.073c-.157.301-.349.603-.307.992.134 0 .239.033.291-.005.532-.399.959-.88 1.096-1.557.147-.722.283-1.445.426-2.168.267-1.354.543-2.706.798-4.061.114-.607.233-1.219.263-1.833.02-.401-.086-.819-.197-1.211-.043-.155-.254-.261-.389-.39zm-7.502 43.13c.246-1.283.483-2.522.722-3.76.268-1.386.549-2.769.801-4.158.099-.546.135-1.104.192-1.588l-.667-.89c-.149.336-.208.616-.136.857.142.478.056.918-.035 1.387-.326 1.675-.549 3.372-.942 5.03-.253 1.07-.254 2.227-.944 3.183-.152.211-.143.539-.225.884.71-.074.804-.752 1.234-.945zm8.53-48.293l.209.078c.263-.304.639-.566.768-.919.302-.824.525-1.683.707-2.544.267-1.261.402-2.553.722-3.799a11.27 11.27 0 00.364-3.315c-.013-.305-.034-.599-.454-.684-.236.279-.3.57-.235.957.068.398.11.864-.037 1.218-.201.488-.227.971-.266 1.469-.018.236-.028.475-.079.705-.188.833-.406 1.658-.585 2.493-.276 1.288-.288 2.648-1.102 3.786-.089.124-.012.367-.012.555zm20.617 20.365c.314-.309.235-.713.109-1.052-.186-.501-.26-1.015-.38-1.527-.456-1.94-.982-3.862-1.485-5.804l-.512-.161c-.029.277-.103.498-.063.696.114.575.298 1.136.411 1.711.378 1.928.928 3.812 1.431 5.708.066.251.15.449.489.429zM98.312 42.746c.342 1.46.561 2.895 1.029 4.244.469 1.351.475 2.861 1.295 4.132.392-.294.383-.579.286-.925a182.864 182.864 0 01-.927-3.49c-.088-.342-.137-.694-.225-1.035-.243-.937-.492-1.873-.757-2.803-.035-.124-.176-.217-.28-.339l-.421.216zm-7.411 1.726c-.751.29-.716.835-.809 1.268-.253 1.178-.437 2.37-.67 3.553a86.434 86.434 0 01-.683 3.188c-.081.342.011.551.37.834.19-.529.391-.977.507-1.446.141-.569.191-1.159.315-1.733.329-1.523.69-3.04 1.004-4.566.065-.319-.017-.67-.034-1.098zm-3.615 16.382c-.09.229-.224.426-.241.633-.101 1.231-.512 2.403-.764 3.599-.27 1.283-.414 2.598-.795 3.86-.101.334-.012.576.471.616.092-.271.207-.537.272-.815.167-.713.303-1.43.423-2.155.273-1.649.733-3.267 1.121-4.897.082-.34.116-.648-.487-.841zM84.36 77.302c-.648.113-.589.668-.674 1.046-.442 1.944-.832 3.9-1.24 5.852-.06.286-.129.571-.18.859-.069.389-.065.756.471 1.019.11-.274.239-.495.288-.733.39-1.894.769-3.79 1.141-5.688.15-.767.407-1.53.194-2.355zm-8.202 41.469c.098-.155.231-.286.27-.441.124-.484.207-.977.315-1.465.445-2.016.888-4.032 1.343-6.045.087-.385-.019-.613-.429-.722-.087.109-.194.188-.221.288-.192.71-.395 1.419-.543 2.138a353.251 353.251 0 00-1.004 5.1c-.076.393-.224.82.269 1.147zm34.919-27.678c.289 1.2.569 2.392.864 3.58.353 1.422.725 2.84 1.074 4.264.074.3.11.594.634.553.011-.227.083-.48.022-.697-.284-1.016-.335-2.095-.819-3.058-.063-.125-.035-.291-.07-.433-.318-1.31-.632-2.621-.969-3.926-.064-.248-.191-.528-.736-.283zm-31.998 11.275c.497-.091.621-.173.666-.45.023-.141-.014-.294.017-.432.31-1.373.648-2.74.939-4.117.207-.976.366-1.962.521-2.948.038-.239-.021-.494-.043-.888l-.662.494c-.036.778-.224 1.483-.376 2.197-.159.747-.264 1.506-.426 2.252-.194.893-.451 1.772-.624 2.668-.075.391-.012.808-.012 1.224zm25.688-34.988c.475-.219.469-.474.404-.744a679.13 679.13 0 00-.904-3.742c-.243-.994-.482-1.99-.75-2.977-.105-.387-.282-.755-.436-1.127-.014-.035-.102-.039-.202-.073l-.274.253c.622 2.83 1.358 5.591 2.162 8.41zm-10.88-29.235c-.12.36-.226.572-.26.794-.279 1.856-.81 3.663-1.067 5.524-.05.365-.258.708-.39 1.062-.128.343-.253.687-.42 1.139.954-.505 1.278-.958 1.437-1.789.325-1.694.679-3.383.999-5.079.097-.511.192-1.044-.299-1.651zm-20.659 95.999l1.586-7.635-.431-.279c-.369.31-.464.696-.528 1.113a67.458 67.458 0 01-.462 2.678c-.238 1.21-.507 2.414-.75 3.623-.026.131.027.277.046.434.159.019.271.032.539.066zM93.521 28.95c-.159.715-.292 1.31-.422 1.905-.397 1.814-.798 3.626-1.176 5.444-.031.149.101.332.158.501.645-.185.661-.661.746-1.091.333-1.678.651-3.359 1.002-5.033.12-.574.079-1.095-.308-1.726zm2.208 8.716c-.424.655-.579 1.172-.379 1.793.18.558.262 1.148.437 1.709.271.868.54 1.742.897 2.575.166.386.431.832 1.156.806-1.215-2.149-1.381-4.507-2.111-6.883zm.746-2.727l.204-.112c.023-.199.105-.412.059-.593-.436-1.723-.895-3.44-1.363-5.221l-.429.257c.047.487.06.953.144 1.406.149.804.327 1.603.519 2.398.115.478.253.955.433 1.412.071.18.285.303.433.453zm18.909 72.289c0 .268-.052.542.009.787.285 1.138.598 2.269.91 3.4.104.377.336.532.778.331-.142-.655-.263-1.311-.429-1.956-.197-.767-.435-1.523-.65-2.285-.072-.256-.17-.449-.618-.277zm-5.481 40.458c-.65-.198-1.139-.205-1.467.354l.511.694-.069 1.051.979.045.652-.945-.606-1.199zm-9.378-4.905l1.888 1.172c.22-.59.054-1.148-.427-1.488-.522-.368-.935-.077-1.461.316z" data-color="4" class="aLgOaV3zRcolors-3"></path><path d="M74.847 152.129c.347-.691.905-.839 1.637-.734l.581.532c.15 1.198-.04 1.477-1.231 1.795l-.986-.694-.001-.899z" data-color="1" class="icon1"></path><path d="M78.465 136.315l9.083.298a4.563 4.563 0 012.486.835l12.345 8.724c.217.153.099.495-.167.481l-8.668-.448a5.14 5.14 0 01-2.58-.854l-12.685-8.457c-.264-.177-.132-.589.186-.579z" data-color="3" class="icon3"></path><path d="M91.459 142.023c-.924.598-1.133.627-2.161.303-.264-.374-.734-.672-.696-1.225.028-.409-.108-.88.235-1.214.774-.752 1.546-.937 2.451-.251.747.568.93 1.094.171 2.387zm-.479-.59l.169-.87c-.268-.316-.496-.626-.968-.608l-.56.26-.373.646.454.865.79.119.488-.412z" data-color="4" class="aLgOaV3zRcolors-3"></path><path d="M90.98 141.433l-.489.414-.79-.119-.454-.865.373-.646.56-.26c.472-.018.699.292.968.608l-.168.868z" data-color="1" class="icon1"></path></g></g>
</svg>
</g><g opacity="1" transform="rotate(0 79.3358 404.9507)">
<svg width="385.1035" height="60" x="79.3358" y="404.9507" version="1.1" preserveAspectRatio="none" viewBox="2.4 -22.44 150.96 23.520000000000003">
  <g transform="matrix(1 0 0 1 0 0)" class="companyName"><path id="id-D6z1nYkh9" d="M19.44-5.40L19.44-5.40Q19.32-4.92 18.86-4.24Q18.40-3.56 17.72-2.86Q17.04-2.16 16.26-1.60Q15.48-1.04 14.76-0.80L14.76-0.80Q12.68 0.12 10.08 0.12L10.08 0.12Q9.24 0.12 8.62 0.08Q8 0.04 7.40-0.16Q6.80-0.36 6.20-0.80Q5.60-1.24 4.84-2.08L4.84-2.08Q4-2.96 3.52-3.82Q3.04-4.68 2.80-5.48Q2.56-6.28 2.48-7.02Q2.40-7.76 2.40-8.36L2.40-8.36Q2.40-9.68 2.72-11.48Q3.04-13.28 4.44-15.88L4.44-15.88Q4.96-16.84 5.24-17.40Q5.52-17.96 5.56-18.16L5.56-18.16L8.04-19.68Q9.32-20.44 10.48-20.90Q11.64-21.36 13.04-21.36L13.04-21.36Q13.44-21.36 14.24-21.36Q15.04-21.36 15.82-21.18Q16.60-21 17.20-20.54Q17.80-20.08 17.80-19.20L17.80-19.20Q17.80-17.72 16.04-17.48L16.04-17.48Q16.08-17.48 15.80-17.52Q15.52-17.56 15.04-17.60Q14.56-17.64 13.96-17.68Q13.36-17.72 12.76-17.72L12.76-17.72Q11.72-17.72 10.66-17.14Q9.60-16.56 8.08-15.16L8.08-15.16Q7.28-13.48 6.90-12.54Q6.52-11.60 6.52-11.28L6.52-11.28Q6.08-10.48 6.08-8.92L6.08-8.92Q6.08-6.04 7.12-4.78Q8.16-3.52 9.96-3.52L9.96-3.52Q11.12-3.52 13.56-4.16L13.56-4.16Q15.04-5.04 16.12-6.96L16.12-6.96Q16.80-7.64 17.52-7.64L17.52-7.64Q18.28-7.64 18.88-7.04Q19.48-6.44 19.48-5.68L19.48-5.68Q19.48-5.60 19.46-5.54Q19.44-5.48 19.44-5.40Z M30.80-21.04L30.80-21.04Q30.72-20.04 30.34-18.78Q29.96-17.52 29.80-16.72L29.80-16.72L29.80-16.24Q29.80-15.68 29.72-15.04Q29.64-14.40 29.56-13.82Q29.48-13.24 29.38-12.80Q29.28-12.36 29.28-12.20L29.28-12.20Q29.24-12 29.24-11.24Q29.24-10.48 29.24-9.20L29.24-9.20L29.24-8.72Q29.24-7.92 29.16-7.32Q29.08-6.72 28.96-6.24L28.96-6.24L29.32-3.24Q29.48-2.80 30.40-1.92L30.40-1.92Q30.20-1.20 29.36-0.62Q28.52-0.04 27.64-0.04L27.64-0.04Q26.44-0.04 25.82-1.18Q25.20-2.32 25.20-5L25.20-5Q25.20-5.44 25.26-5.76Q25.32-6.08 25.32-6.56L25.32-6.56Q25.32-7.52 25.08-8.96L25.08-8.96Q25.28-9.40 25.38-10.08Q25.48-10.76 25.52-11.38Q25.56-12 25.56-12.44Q25.56-12.88 25.56-12.80L25.56-12.80Q25.56-12.76 25.66-13.36Q25.76-13.96 25.88-14.78Q26-15.60 26.10-16.48Q26.20-17.36 26.20-17.88L26.20-17.88L26.20-18.20L26.88-21.56Q27.40-22.44 28.68-22.44L28.68-22.44Q30.08-22.44 30.80-21.04Z M51.04-4.72L51.04-4.72Q51.76-4.24 51.76-3.56L51.76-3.56Q51.76-3.20 51.56-2.82Q51.36-2.44 51.04-2.14Q50.72-1.84 50.36-1.64Q50-1.44 49.64-1.44L49.64-1.44Q49.32-1.56 48.88-1.86Q48.44-2.16 48-2.54Q47.56-2.92 47.18-3.40Q46.80-3.88 46.60-4.36L46.60-4.36L46.32-3.68Q45.56-2.24 43.92-0.96L43.92-0.96Q41.92-0.60 41.60-0.60L41.60-0.60Q40.84-0.60 39.76-0.84L39.76-0.84L37.56-2.40Q36.12-3.76 36.12-6.12L36.12-6.12Q36.12-6.96 36.38-7.98Q36.64-9 37.14-10.04Q37.64-11.08 38.36-12.08Q39.08-13.08 40.04-13.88L40.04-13.88Q41.20-14.32 42.28-14.62Q43.36-14.92 43.92-15L43.92-15Q44.68-15.84 45.72-15.84L45.72-15.84Q46.32-15.84 46.78-15.26Q47.24-14.68 47.58-13.80Q47.92-12.92 48.12-11.86Q48.32-10.80 48.40-9.84L48.40-9.84L48.92-7.72Q49.16-6.72 49.70-6Q50.24-5.28 51.04-4.72ZM44.96-9.16L44.96-9.16Q44.88-9.20 44.36-11.68L44.36-11.68Q44.16-11.68 43.76-11.68Q43.36-11.68 42.82-11.46Q42.28-11.24 41.66-10.70Q41.04-10.16 40.48-9.08L40.48-9.08Q39.64-7.52 39.64-5.96L39.64-5.96Q40.32-4.64 41.76-3.88L41.76-3.88Q42.20-4 42.50-4.16Q42.80-4.32 43.04-4.60Q43.28-4.88 43.50-5.30Q43.72-5.72 44-6.36L44-6.36Q44.52-7.28 44.74-7.98Q44.96-8.68 44.96-9.16Z M65.96-4.60L65.96-4.60Q65.84-3.36 65.14-2.34Q64.44-1.32 63.72-0.28L63.72-0.28Q63.28 0.08 62.46 0.34Q61.64 0.60 60.84 0.76Q60.04 0.92 59.46 1Q58.88 1.08 58.96 1.08L58.96 1.08Q58.56 1.08 57.94 0.94Q57.32 0.80 56.74 0.66Q56.16 0.52 55.78 0.38Q55.40 0.24 55.44 0.24L55.44 0.24Q55.08 0.20 54.52-0.02Q53.96-0.24 53.46-0.54Q52.96-0.84 52.58-1.18Q52.20-1.52 52.20-1.84L52.20-1.84Q52.20-2.16 52.36-2.50Q52.52-2.84 52.80-3.14Q53.08-3.44 53.38-3.62Q53.68-3.80 54-3.80L54-3.80L56.76-2.76Q57.52-2.52 58.26-2.42Q59-2.32 59.72-2.32L59.72-2.32Q60.40-2.32 60.94-2.58Q61.48-2.84 61.76-3.20L61.76-3.20L62.36-4.40Q62.28-5.12 61.78-5.52Q61.28-5.92 60.54-6.20Q59.80-6.48 58.96-6.72Q58.12-6.96 57.40-7.36L57.40-7.36L55.68-8.44Q54.84-9.52 54.80-11.76L54.80-11.76Q55.04-13.16 56-14L56-14Q56.04-14.04 56.52-14.38Q57-14.72 58-15.36L58-15.36Q58.16-15.36 59.02-15.44Q59.88-15.52 61.40-15.68L61.40-15.68Q62.08-15.68 64.72-14.72L64.72-14.72Q65.24-14.20 65.24-13.28L65.24-13.28Q65.24-12.56 64.90-12.06Q64.56-11.56 63.92-11.56L63.92-11.56Q63.24-11.56 62.42-11.90Q61.60-12.24 60.88-12.24L60.88-12.24Q59.88-12.24 59.06-12.06Q58.24-11.88 58.24-11.24L58.24-11.24Q58.24-10.32 59.04-10.12L59.04-10.12Q65.16-8.76 65.96-4.60Z M81.72-4.60L81.72-4.60Q81.60-3.36 80.90-2.34Q80.20-1.32 79.48-0.28L79.48-0.28Q79.04 0.08 78.22 0.34Q77.40 0.60 76.60 0.76Q75.80 0.92 75.22 1Q74.64 1.08 74.72 1.08L74.72 1.08Q74.32 1.08 73.70 0.94Q73.08 0.80 72.50 0.66Q71.92 0.52 71.54 0.38Q71.16 0.24 71.20 0.24L71.20 0.24Q70.84 0.20 70.28-0.02Q69.72-0.24 69.22-0.54Q68.72-0.84 68.34-1.18Q67.96-1.52 67.96-1.84L67.96-1.84Q67.96-2.16 68.12-2.50Q68.28-2.84 68.56-3.14Q68.84-3.44 69.14-3.62Q69.44-3.80 69.76-3.80L69.76-3.80L72.52-2.76Q73.28-2.52 74.02-2.42Q74.76-2.32 75.48-2.32L75.48-2.32Q76.16-2.32 76.70-2.58Q77.24-2.84 77.52-3.20L77.52-3.20L78.12-4.40Q78.04-5.12 77.54-5.52Q77.04-5.92 76.30-6.20Q75.56-6.48 74.72-6.72Q73.88-6.96 73.16-7.36L73.16-7.36L71.44-8.44Q70.60-9.52 70.56-11.76L70.56-11.76Q70.80-13.16 71.76-14L71.76-14Q71.80-14.04 72.28-14.38Q72.76-14.72 73.76-15.36L73.76-15.36Q73.92-15.36 74.78-15.44Q75.64-15.52 77.16-15.68L77.16-15.68Q77.84-15.68 80.48-14.72L80.48-14.72Q81-14.20 81-13.28L81-13.28Q81-12.56 80.66-12.06Q80.32-11.56 79.68-11.56L79.68-11.56Q79-11.56 78.18-11.90Q77.36-12.24 76.64-12.24L76.64-12.24Q75.64-12.24 74.82-12.06Q74-11.88 74-11.24L74-11.24Q74-10.32 74.80-10.12L74.80-10.12Q80.92-8.76 81.72-4.60Z M93.28-18.84L93.28-18.84Q93.36-18.52 93.36-18.24L93.36-18.24Q93.36-16.96 92.60-16.08L92.60-16.08Q91.40-15.60 90.20-15.60L90.20-15.60Q89.44-16.08 88.94-16.70Q88.44-17.32 88.44-17.92L88.44-17.92Q88.44-18.44 89.64-20.48L89.64-20.48Q90.16-20.40 90.74-20.36Q91.32-20.32 91.82-20.16Q92.32-20 92.70-19.70Q93.08-19.40 93.28-18.84ZM92-12.16L92-12.16L92-11.64Q92-11.44 92-11.20Q92-10.96 91.92-10.76L91.92-10.76L91.60-8.96L91.60-8.60Q91.60-8.36 91.56-7.96Q91.52-7.56 91.46-7.16Q91.40-6.76 91.36-6.40Q91.32-6.04 91.32-5.80L91.32-5.80Q91.32-5.60 91.34-5.48Q91.36-5.36 91.36-5.16L91.36-5.16Q91.36-4.80 91.28-4.38Q91.20-3.96 91.20-3.44L91.20-3.44Q91.20-2.96 91.32-2.44L91.32-2.44Q90.88-0.64 89.48-0.64L89.48-0.64Q87.52-0.64 87.52-4.32L87.52-4.32Q87.52-5.56 87.64-6.78Q87.76-8 87.92-9.04Q88.08-10.08 88.26-10.86Q88.44-11.64 88.56-12.08L88.56-12.08Q89.16-12.96 90.24-12.96L90.24-12.96Q91.28-12.96 92-12.16Z M112-3.84L112-3.84Q111.24-2.24 109.52-1.30Q107.80-0.36 105.68-0.36L105.68-0.36Q105.40-0.36 104.76-0.44Q104.12-0.52 103.34-0.76Q102.56-1 101.74-1.42Q100.92-1.84 100.24-2.54Q99.56-3.24 99.12-4.24Q98.68-5.24 98.68-6.60L98.68-6.60Q98.64-8.40 99.18-9.88Q99.72-11.36 100.92-12.88L100.92-12.88L102.20-14.52Q104.44-16.04 107.24-16.04L107.24-16.04Q108.76-16.04 109.66-15.48Q110.56-14.92 110.56-13.88L110.56-13.88Q110.56-13.08 109.98-12.58Q109.40-12.08 108.48-12.08L108.48-12.08Q108.44-12.08 108.18-12.14Q107.92-12.20 107.60-12.28Q107.28-12.36 106.96-12.42Q106.64-12.48 106.44-12.48L106.44-12.48Q105.52-12.48 104.34-11.52Q103.16-10.56 102.48-8.48L102.48-8.48Q102.20-7.60 102.20-7.04L102.20-7.04Q102.20-5.92 102.82-5.28Q103.44-4.64 104.20-4.30Q104.96-3.96 105.60-3.86Q106.24-3.76 106.28-3.76L106.28-3.76Q106.84-3.76 107.40-4.08Q107.96-4.40 108.42-4.80Q108.88-5.20 109.16-5.50Q109.44-5.80 109.40-5.80L109.40-5.80Q109.80-6.16 110.32-6.16L110.32-6.16Q110.96-6.16 111.50-5.50Q112.04-4.84 112.04-4.16L112.04-4.16Q112.04-3.96 112-3.84Z M130.20-0.92L130.20-0.92Q130-0.84 129.80-0.78Q129.60-0.72 129.36-0.72L129.36-0.72L129.20-0.72L128.20-0.72Q127.92-0.72 127.66-0.74Q127.40-0.76 127.08-0.76L127.08-0.76Q126.76-0.76 126.44-0.74Q126.12-0.72 125.76-0.72L125.76-0.72Q125.32-0.72 124.56-0.94Q123.80-1.16 122.64-1.16L122.64-1.16Q122.40-1.16 122.16-1.14Q121.92-1.12 121.64-1.12L121.64-1.12Q121.36-1.12 118.40-1.64L118.40-1.64Q117.56-2.52 117.56-3.36L117.56-3.36Q117.56-4.04 117.84-4.76L117.84-4.76Q118.72-5.56 119.24-6.16Q119.76-6.76 120-7.16L120-7.16Q120.80-8.36 121.62-9.34Q122.44-10.32 123.24-11.24L123.24-11.24Q123.40-11.36 123.66-11.74Q123.92-12.12 124.24-12.56Q124.56-13 124.88-13.46Q125.20-13.92 125.44-14.20L125.44-14.20Q126.48-15.36 126.48-16.76L126.48-16.76Q126.48-18.12 125.08-18.12L125.08-18.12Q124.60-18.12 124-17.98Q123.40-17.84 122.86-17.60Q122.32-17.36 121.84-17.04Q121.36-16.72 121.12-16.36L121.12-16.36Q120.96-16.04 120.70-15.48Q120.44-14.92 120.08-14.34Q119.72-13.76 119.28-13.34Q118.84-12.92 118.32-12.92L118.32-12.92Q117.56-12.92 116.96-13.48Q116.36-14.04 116.36-14.88L116.36-14.88Q116.36-15.28 116.70-16.04Q117.04-16.80 117.54-17.58Q118.04-18.36 118.62-19Q119.20-19.64 119.68-19.84L119.68-19.84Q122.28-21.36 125.56-21.36L125.56-21.36Q126.84-21.36 127.70-20.96Q128.56-20.56 129.08-19.92Q129.60-19.28 129.82-18.44Q130.04-17.60 130.04-16.72L130.04-16.72Q130.04-14.20 128.52-12.52L128.52-12.52Q128.08-12.04 127.72-11.52Q127.36-11 127.06-10.54Q126.76-10.08 126.52-9.70Q126.28-9.32 126.16-9.16L126.16-9.16Q125.72-8.92 123.40-5.68L123.40-5.68L122.36-4.64Q123.72-4.64 124.66-4.50Q125.60-4.36 125.60-4.44L125.60-4.44Q126.28-4.44 127.26-4.46Q128.24-4.48 129.52-4.48L129.52-4.48Q130.08-4.48 130.46-3.78Q130.84-3.08 130.84-2.28L130.84-2.28Q130.84-1.20 130.20-0.92Z M153.36-11.40L153.36-11.40Q153.28-10.52 152.96-9.38Q152.64-8.24 152.22-7.10Q151.80-5.96 151.30-4.96Q150.80-3.96 150.32-3.36L150.32-3.36L147.96-1.72Q146.44-0.88 144.84-0.88L144.84-0.88Q143.20-0.88 141.82-1.74Q140.44-2.60 139.42-4.02Q138.40-5.44 137.82-7.22Q137.24-9 137.24-10.88L137.24-10.88Q137.24-13.04 138.14-14.88Q139.04-16.72 141.20-18.52L141.20-18.52Q142.24-19.40 143.20-19.84Q144.16-20.28 144.98-20.46Q145.80-20.64 146.44-20.66Q147.08-20.68 147.52-20.68L147.52-20.68Q149.04-20.68 150.08-20.20Q151.12-19.72 151.80-18.64Q152.48-17.56 152.84-15.78Q153.20-14 153.36-11.40ZM149.32-9.12L149.32-9.12Q149.84-10.56 149.84-12.24L149.84-12.24Q149.84-13.12 149.68-14.02Q149.52-14.92 149.20-15.64Q148.88-16.36 148.38-16.82Q147.88-17.28 147.24-17.28L147.24-17.28Q146.12-17.28 144.98-16.88Q143.84-16.48 142.94-15.70Q142.04-14.92 141.48-13.74Q140.92-12.56 140.92-11L140.92-11Q140.96-10.52 140.98-9.96Q141-9.40 141.16-8.76L141.16-8.76L141.56-7.12Q143.04-4.44 144.92-4.44L144.92-4.44Q146.28-4.44 147.42-5.70Q148.56-6.96 149.32-9.12Z"/></g>
</svg>
</g></svg></svg>