<svg version="1.1" preserveAspectRatio="none" xmlns="http://www.w3.org/2000/svg" width="500" height="500" viewBox="0 0 500 500"><rect width="100%" height="100%" fill="#F7F7E9" fill-opacity="1"/><svg viewBox="37.7762 152.6068 323.9416 97.8" width="333" height="100.53478775186639" x="83.5px" y="199.7326px" xmlns="http://www.w3.org/2000/svg" xmlns:xlink="http://www.w3.org/1999/xlink" preserveAspectRatio="none"><defs></defs><style>.aLgOaV3zRcolors-3 {fill:#772306;fill-opacity:1;}.aLgOaV3zRcolors-4 {fill:#DD5419;fill-opacity:1;}.aLgOaV3zRcolors-5 {fill:#AA8E78;fill-opacity:1;}.aLgOaV3zRcolors-6 {fill:#D4CDAE;fill-opacity:1;}.aLgOaV3zRcolors-7 {fill:#6F8277;fill-opacity:1;}.companyName {fill:#AE360E;fill-opacity:1;}.icon2 {fill:#AE360E;fill-opacity:1;}.icon3 {fill:#491503;fill-opacity:1;}.icon3-str {stroke:#491503;stroke-opacity:1;}.shapeStroke-str {stroke:#C0BAA7;stroke-opacity:1;}</style><g opacity="1" transform="rotate(60 212.6331 190.4068)">
<svg width="39.0754" height="52.3194" x="212.6331" y="190.4068" version="1.1" preserveAspectRatio="none" viewBox="-13.77558135986328 -22.76799774169922 67.21858215332031 90.0009994506836">
  <g transform="matrix(1 0 0 1 0 0)" class="icon3"><path d="M17.91,25.109c0.283,0.123,7.021,2.999,15.371,2.999c7.943,0,14.506-2.576,19.512-7.651l0.65-0.659l-0.823-0.423  c-0.229-0.117-5.684-2.867-13.618-2.867c-7.168,0-13.919,2.219-20.088,6.595c8.212-8.743,18.012-17.524,29.383-25.016L47.548-3.05  C40.8,1.396,34.603,6.293,28.956,11.367c9.133-18.272-1.117-33.224-1.225-33.377l-0.529-0.758l-0.562,0.737  c-11.69,15.25,0.082,34.991,0.202,35.189l0.054,0.087c-5.546,5.146-10.53,10.437-14.95,15.595  C19.167,11.631,9.774-2.088,9.671-2.234L9.137-2.993L8.574-2.256c-11.11,14.498-1.022,33.042,0.104,35.007  C3.066,39.642-1.504,46.155-5.018,51.598c6.801-16.952-2.392-30.384-2.494-30.528l-0.533-0.76l-0.563,0.737  c-11.688,15.251,0.088,34.995,0.208,35.191l0.238,0.39c-3.653,6.044-5.522,9.893-5.583,10.021l1.227,0.584  c0.096-0.2,4.775-9.824,13.931-22.7l0.115,0.05c0.28,0.122,7.016,2.999,15.37,2.999c7.94,0,14.503-2.576,19.506-7.648l0.65-0.662  l-0.825-0.422c-0.229-0.117-5.678-2.865-13.618-2.865c-6.939,0-13.488,2.086-19.497,6.191c3.978-5.434,8.709-11.352,14.185-17.329  L17.91,25.109z M28.047,10.12l-0.688-30.125C29.452-16.239,34.861-4.187,28.047,10.12z M26.028-18.666l0.653,28.558  C24.223,4.627,19.75-7.83,26.028-18.666z M21.163,24.823l28.381-3.296c-4.399,3.457-9.85,5.221-16.263,5.221  C28.317,26.748,23.864,25.662,21.163,24.823z M50.703,20.027L20.78,23.503c5.644-3.725,11.754-5.635,18.222-5.635  C44.404,17.868,48.671,19.231,50.703,20.027z M9.987,29.894L9.297-0.227C11.398,3.538,16.812,15.572,9.987,29.894z M7.967,1.104  l0.654,28.564C6.162,24.404,1.683,11.94,7.967,1.104z M-7.194,53.202l-0.69-30.132C-5.787,26.828-0.365,38.869-7.194,53.202z   M-9.214,24.411l0.654,28.555C-11.021,47.698-15.492,35.243-9.214,24.411z M4.789,44.297l28.368-3.296  c-4.4,3.455-9.849,5.216-16.258,5.216C11.938,46.217,7.491,45.136,4.789,44.297z M22.616,37.342c5.409,0,9.676,1.363,11.706,2.159  L4.385,42.979C10.029,39.252,16.146,37.342,22.616,37.342z"></path></g>
</svg>
</g><g opacity="1" transform="rotate(0 229.747 217.6068)">
<svg width="131.9708" height="1.6" x="229.747" y="217.6068" version="1.1" preserveAspectRatio="none" viewBox="0 0 131.9708 1.6">
  <defs><rect x="0" y="0" width="131.9708" height="1.6" rx="0px" ry="0px" id="id-R9TavoXY1768837388727"></rect></defs><use class="icon3 shapeStroke-str" style="stroke-width:0;" xlink:href="#id-R9TavoXY1768837388727"></use>
</svg>
</g><g opacity="1" transform="rotate(0 37.7762 152.6068)">
<svg width="323.9416" height="40" x="37.7762" y="152.6068" version="1.1" preserveAspectRatio="none" viewBox="2.4 -31.24 256.24 31.64">
  <g transform="matrix(1 0 0 1 0 0)" class="companyName"><path id="id-D6z1nYkh9" d="M26.84-28.32L27.56-30.80L28.68-30.80L29.04-21.60L27.56-21.60Q26.68-25.12 24.16-27.12Q21.64-29.12 18.08-29.12L18.08-29.12Q15.64-29.12 13.72-28.16Q11.80-27.20 10.48-25.40Q9.16-23.60 8.46-21Q7.76-18.40 7.76-15.12L7.76-15.12Q7.76-8.68 10.44-5.22Q13.12-1.76 18.20-1.76L18.20-1.76Q25.92-1.76 28.12-9.96L28.12-9.96L29.76-9.96L29.76 0L28.36 0L27.44-3.16Q23.24 0.40 17.28 0.40L17.28 0.40Q13.88 0.40 11.14-0.68Q8.40-1.76 6.46-3.74Q4.52-5.72 3.46-8.56Q2.40-11.40 2.40-14.88L2.40-14.88Q2.40-18.52 3.52-21.52Q4.64-24.52 6.66-26.68Q8.68-28.84 11.50-30.02Q14.32-31.20 17.72-31.20L17.72-31.20Q20.12-31.20 22.24-30.52Q24.36-29.84 26.84-28.32L26.84-28.32Z M62.32-7.88L61.72 0L35.88 0L35.88-1.52Q37.28-1.56 38.14-1.76Q39-1.96 39.48-2.44Q39.96-2.92 40.12-3.80Q40.28-4.68 40.28-6.08L40.28-6.08L40.28-24.72Q40.28-26.12 40.14-26.98Q40-27.84 39.58-28.34Q39.16-28.84 38.36-29.02Q37.56-29.20 36.28-29.28L36.28-29.28L36.28-30.80L48.44-30.80L48.44-29.28Q47.16-29.24 46.38-29.04Q45.60-28.84 45.18-28.32Q44.76-27.80 44.62-26.88Q44.48-25.96 44.48-24.44L44.48-24.44L44.48-7.20Q44.48-5.52 44.82-4.46Q45.16-3.40 45.98-2.82Q46.80-2.24 48.16-2.02Q49.52-1.80 51.60-1.80L51.60-1.80Q53.88-1.80 55.44-2.06Q57-2.32 58.06-2.98Q59.12-3.64 59.74-4.82Q60.36-6 60.80-7.88L60.80-7.88L62.32-7.88Z M86.32-6.84L84.68-11.16L74-11.16Q73.32-9.52 72.84-8.26Q72.36-7 72.06-6.08Q71.76-5.16 71.64-4.52Q71.52-3.88 71.52-3.48L71.52-3.48Q71.52-2.36 72.24-1.94Q72.96-1.52 74.64-1.52L74.64-1.52L74.64 0L64.92 0L64.92-1.52Q65.84-1.64 66.50-1.84Q67.16-2.04 67.66-2.40Q68.16-2.76 68.54-3.34Q68.92-3.92 69.28-4.76L69.28-4.76L79.68-30.80L81.40-30.80L90.48-8.24Q91.40-6 92.08-4.66Q92.76-3.32 93.40-2.64Q94.04-1.96 94.78-1.76Q95.52-1.56 96.56-1.56L96.56-1.56L96.56 0L83.52 0L83.52-1.56Q85.64-1.56 86.44-1.96Q87.24-2.36 87.24-3.28L87.24-3.28Q87.24-3.68 87.20-4.02Q87.16-4.36 87.06-4.76Q86.96-5.16 86.78-5.66Q86.60-6.16 86.32-6.84L86.32-6.84ZM79.48-24.96L74.80-13.16L83.92-13.16L79.48-24.96Z M100.96-0.44L100.36-9.40L101.84-9.40Q102.12-7.60 102.90-6.16Q103.68-4.72 104.86-3.72Q106.04-2.72 107.58-2.18Q109.12-1.64 110.92-1.64L110.92-1.64Q113.88-1.64 115.60-3.04Q117.32-4.44 117.32-6.84L117.32-6.84Q117.32-7.84 116.98-8.68Q116.64-9.52 115.84-10.30Q115.04-11.08 113.70-11.84Q112.36-12.60 110.32-13.48L110.32-13.48Q107.84-14.56 106.16-15.56Q104.48-16.56 103.48-17.64Q102.48-18.72 102.06-19.94Q101.64-21.16 101.64-22.72L101.64-22.72Q101.64-24.56 102.30-26.12Q102.96-27.68 104.16-28.82Q105.36-29.96 107-30.58Q108.64-31.20 110.60-31.20L110.60-31.20Q112.36-31.20 113.88-30.64Q115.40-30.08 116.96-28.84L116.96-28.84L118-30.64L118.92-30.64L119.36-22.68L117.88-22.68Q116.92-25.96 115.10-27.56Q113.28-29.16 110.72-29.16L110.72-29.16Q108.28-29.16 106.84-27.96Q105.40-26.76 105.40-24.72L105.40-24.72Q105.40-23.76 105.72-22.98Q106.04-22.20 106.76-21.50Q107.48-20.80 108.64-20.10Q109.80-19.40 111.52-18.64L111.52-18.64Q114.48-17.32 116.44-16.18Q118.40-15.04 119.56-13.90Q120.72-12.76 121.20-11.50Q121.68-10.24 121.68-8.68L121.68-8.68Q121.68-6.68 120.88-5Q120.08-3.32 118.64-2.12Q117.20-0.92 115.20-0.26Q113.20 0.40 110.80 0.40L110.80 0.40Q108.52 0.40 106.70-0.24Q104.88-0.88 103.00-2.40L103.00-2.40L101.88-0.44L100.96-0.44Z M128.76-0.44L128.16-9.40L129.64-9.40Q129.92-7.60 130.70-6.16Q131.48-4.72 132.66-3.72Q133.84-2.72 135.38-2.18Q136.92-1.64 138.72-1.64L138.72-1.64Q141.68-1.64 143.40-3.04Q145.12-4.44 145.12-6.84L145.12-6.84Q145.12-7.84 144.78-8.68Q144.44-9.52 143.64-10.30Q142.84-11.08 141.50-11.84Q140.16-12.60 138.12-13.48L138.12-13.48Q135.64-14.56 133.96-15.56Q132.28-16.56 131.28-17.64Q130.28-18.72 129.86-19.94Q129.44-21.16 129.44-22.72L129.44-22.72Q129.44-24.56 130.10-26.12Q130.76-27.68 131.96-28.82Q133.16-29.96 134.80-30.58Q136.44-31.20 138.40-31.20L138.40-31.20Q140.16-31.20 141.68-30.64Q143.20-30.08 144.76-28.84L144.76-28.84L145.80-30.64L146.72-30.64L147.16-22.68L145.68-22.68Q144.72-25.96 142.90-27.56Q141.08-29.16 138.52-29.16L138.52-29.16Q136.08-29.16 134.64-27.96Q133.20-26.76 133.20-24.72L133.20-24.72Q133.20-23.76 133.52-22.98Q133.84-22.20 134.56-21.50Q135.28-20.80 136.44-20.10Q137.60-19.40 139.32-18.64L139.32-18.64Q142.28-17.32 144.24-16.18Q146.20-15.04 147.36-13.90Q148.52-12.76 149-11.50Q149.48-10.24 149.48-8.68L149.48-8.68Q149.48-6.68 148.68-5Q147.88-3.32 146.44-2.12Q145-0.92 143-0.26Q141 0.40 138.60 0.40L138.60 0.40Q136.32 0.40 134.50-0.24Q132.68-0.88 130.80-2.40L130.80-2.40L129.68-0.44L128.76-0.44Z M164.04-23.24L164.04-7.56Q164.04-5.56 164.20-4.40Q164.36-3.24 164.82-2.60Q165.28-1.96 166.14-1.76Q167-1.56 168.40-1.52L168.40-1.52L168.40 0L155.44 0L155.44-1.52Q156.84-1.56 157.70-1.78Q158.56-2 159.04-2.60Q159.52-3.20 159.68-4.30Q159.84-5.40 159.84-7.28L159.84-7.28L159.84-23.52Q159.84-25.20 159.70-26.30Q159.56-27.40 159.14-28.04Q158.72-28.68 157.92-28.94Q157.12-29.20 155.84-29.28L155.84-29.28L155.84-30.80L168-30.80L168-29.28Q166.72-29.24 165.94-28.96Q165.16-28.68 164.74-28.02Q164.32-27.36 164.18-26.20Q164.04-25.04 164.04-23.24L164.04-23.24Z M198.64-28.32L199.36-30.80L200.48-30.80L200.84-21.60L199.36-21.60Q198.48-25.12 195.96-27.12Q193.44-29.12 189.88-29.12L189.88-29.12Q187.44-29.12 185.52-28.16Q183.60-27.20 182.28-25.40Q180.96-23.60 180.26-21Q179.56-18.40 179.56-15.12L179.56-15.12Q179.56-8.68 182.24-5.22Q184.92-1.76 190.00-1.76L190.00-1.76Q197.72-1.76 199.92-9.96L199.92-9.96L201.56-9.96L201.56 0L200.16 0L199.24-3.16Q195.04 0.40 189.08 0.40L189.08 0.40Q185.68 0.40 182.94-0.68Q180.20-1.76 178.26-3.74Q176.32-5.72 175.26-8.56Q174.20-11.40 174.20-14.88L174.20-14.88Q174.20-18.52 175.32-21.52Q176.44-24.52 178.46-26.68Q180.48-28.84 183.30-30.02Q186.12-31.20 189.52-31.20L189.52-31.20Q191.92-31.20 194.04-30.52Q196.16-29.84 198.64-28.32L198.64-28.32Z M213.68-4.12L213.72-3.92L221.68-3.92Q222.64-3.92 223.36-4.10Q224.08-4.28 224.64-4.80Q225.20-5.32 225.64-6.22Q226.08-7.12 226.52-8.52L226.52-8.52L228-8.52L226.48 0L207.88 0L207.88-1.32Q212.44-5.40 215.38-8.46Q218.32-11.52 220-13.96Q221.68-16.40 222.32-18.46Q222.96-20.52 222.96-22.64L222.96-22.64Q222.96-25.76 221.50-27.56Q220.04-29.36 217.52-29.36L217.52-29.36Q215.12-29.36 213.62-27.80Q212.12-26.24 212.12-23.76L212.12-23.76Q212.12-21.60 213.30-20.32Q214.48-19.04 216.52-19.04L216.52-19.04Q216.32-18.08 215.48-17.50Q214.64-16.92 213.40-16.92L213.40-16.92Q212.28-16.92 211.34-17.36Q210.40-17.80 209.70-18.60Q209-19.40 208.62-20.50Q208.24-21.60 208.24-22.92L208.24-22.92Q208.24-24.72 209-26.24Q209.76-27.76 211.08-28.86Q212.40-29.96 214.22-30.60Q216.04-31.24 218.16-31.24L218.16-31.24Q220.28-31.24 222.04-30.60Q223.80-29.96 225.08-28.80Q226.36-27.64 227.06-26.06Q227.76-24.48 227.76-22.56L227.76-22.56Q227.76-20.08 226.66-17.70Q225.56-15.32 223.64-13.02Q221.72-10.72 219.16-8.50Q216.60-6.28 213.68-4.12L213.68-4.12Z M246.80-31.20L246.80-31.20Q249.24-31.20 251.40-29.96Q253.56-28.72 255.16-26.56Q256.76-24.40 257.70-21.48Q258.64-18.56 258.64-15.16L258.64-15.16Q258.64-11.92 257.70-9.08Q256.76-6.24 255.16-4.14Q253.56-2.04 251.40-0.82Q249.24 0.40 246.80 0.40L246.80 0.40Q244.36 0.40 242.20-0.82Q240.04-2.04 238.44-4.14Q236.84-6.24 235.90-9.08Q234.96-11.92 234.96-15.16L234.96-15.16Q234.96-18.56 235.90-21.48Q236.84-24.40 238.44-26.56Q240.04-28.72 242.20-29.96Q244.36-31.20 246.80-31.20ZM246.80-1.52L246.80-1.52Q248.36-1.52 249.58-2.16Q250.80-2.80 251.66-4.36Q252.52-5.92 252.98-8.52Q253.44-11.12 253.44-15.04L253.44-15.04Q253.44-19.12 252.98-21.84Q252.52-24.56 251.68-26.22Q250.84-27.88 249.60-28.58Q248.36-29.28 246.80-29.28L246.80-29.28Q245.24-29.28 244.00-28.58Q242.76-27.88 241.92-26.22Q241.08-24.56 240.62-21.84Q240.16-19.12 240.16-15.04L240.16-15.04Q240.16-11.12 240.62-8.52Q241.08-5.92 241.92-4.36Q242.76-2.80 244.00-2.16Q245.24-1.52 246.80-1.52Z"/></g>
</svg>
</g><g opacity="1" transform="rotate(0 37.7762 217.6068)">
<svg width="131.9708" height="1.6" x="37.7762" y="217.6068" version="1.1" preserveAspectRatio="none" viewBox="0 0 131.9708 1.6">
  <defs><rect x="0" y="0" width="131.9708" height="1.6" rx="0px" ry="0px" id="id-YLqQhLpe-1768837388727"></rect></defs><use class="icon3 shapeStroke-str" style="stroke-width:0;" xlink:href="#id-YLqQhLpe-1768837388727"></use>
</svg>
</g></svg></svg>